M48
; DRILL file {KiCad 9.0.2} date 2025-07-10T10:02:53+0200
; FORMAT={-:-/ absolute / metric / decimal}
; #@! TF.CreationDate,2025-07-10T10:02:53+02:00
; #@! TF.GenerationSoftware,Kicad,Pcbnew,9.0.2
; #@! TF.FileFunction,MixedPlating,1,2
FMAT,2
METRIC
; #@! TA.AperFunction,Plated,PTH,ViaDrill
T1C0.800
; #@! TA.AperFunction,Plated,PTH,ComponentDrill
T2C0.800
; #@! TA.AperFunction,Plated,PTH,ComponentDrill
T3C1.000
; #@! TA.AperFunction,Plated,PTH,ComponentDrill
T4C1.300
; #@! TA.AperFunction,Plated,PTH,ComponentDrill
T5C3.200
%
G90
G05
T1
X135.89Y-89.535
X140.97Y-93.98
X149.86Y-79.375
X149.86Y-85.09
X162.56Y-89.535
X166.37Y-93.98
X177.165Y-75.565
X177.165Y-84.455
X180.34Y-97.155
X180.34Y-108.585
X194.31Y-84.455
X204.47Y-82.55
X204.47Y-89.535
T2
X186.595Y-79.375
X188.595Y-79.375
X190.595Y-79.375
T3
X115.57Y-80.645
X115.57Y-83.185
X115.57Y-85.725
X115.57Y-88.265
X115.57Y-90.805
X115.57Y-93.345
X115.57Y-95.885
X115.57Y-98.425
X115.57Y-100.965
X118.11Y-100.965
X120.65Y-100.965
X123.19Y-100.965
X125.73Y-100.965
X128.27Y-100.965
X130.81Y-80.645
X130.81Y-83.185
X130.81Y-85.725
X130.81Y-88.265
X130.81Y-90.805
X130.81Y-93.345
X130.81Y-95.885
X130.81Y-98.425
X130.81Y-100.965
T4
X154.305Y-102.87
X172.72Y-102.87
X199.39Y-102.87
T5
X110.49Y-76.2
X110.49Y-106.045
X206.375Y-76.2
X206.375Y-106.045
M30
