%TF.GenerationSoftware,KiCad,Pcbnew,9.0.2*%
%TF.CreationDate,2025-07-10T10:02:47+02:00*%
%TF.ProjectId,BLDC_Motor_neu_1,424c4443-5f4d-46f7-946f-725f6e65755f,rev?*%
%TF.SameCoordinates,Original*%
%TF.FileFunction,Copper,L1,Top*%
%TF.FilePolarity,Positive*%
%FSLAX46Y46*%
G04 Gerber Fmt 4.6, Leading zero omitted, Abs format (unit mm)*
G04 Created by KiCad (PCBNEW 9.0.2) date 2025-07-10 10:02:47*
%MOMM*%
%LPD*%
G01*
G04 APERTURE LIST*
G04 Aperture macros list*
%AMRoundRect*
0 Rectangle with rounded corners*
0 $1 Rounding radius*
0 $2 $3 $4 $5 $6 $7 $8 $9 X,Y pos of 4 corners*
0 Add a 4 corners polygon primitive as box body*
4,1,4,$2,$3,$4,$5,$6,$7,$8,$9,$2,$3,0*
0 Add four circle primitives for the rounded corners*
1,1,$1+$1,$2,$3*
1,1,$1+$1,$4,$5*
1,1,$1+$1,$6,$7*
1,1,$1+$1,$8,$9*
0 Add four rect primitives between the rounded corners*
20,1,$1+$1,$2,$3,$4,$5,0*
20,1,$1+$1,$4,$5,$6,$7,0*
20,1,$1+$1,$6,$7,$8,$9,0*
20,1,$1+$1,$8,$9,$2,$3,0*%
G04 Aperture macros list end*
%TA.AperFunction,ComponentPad*%
%ADD10C,2.600000*%
%TD*%
%TA.AperFunction,SMDPad,CuDef*%
%ADD11RoundRect,0.150000X-0.587500X-0.150000X0.587500X-0.150000X0.587500X0.150000X-0.587500X0.150000X0*%
%TD*%
%TA.AperFunction,ComponentPad*%
%ADD12C,5.600000*%
%TD*%
%TA.AperFunction,SMDPad,CuDef*%
%ADD13RoundRect,0.250000X-0.312500X-0.625000X0.312500X-0.625000X0.312500X0.625000X-0.312500X0.625000X0*%
%TD*%
%TA.AperFunction,SMDPad,CuDef*%
%ADD14RoundRect,0.250000X0.312500X0.625000X-0.312500X0.625000X-0.312500X-0.625000X0.312500X-0.625000X0*%
%TD*%
%TA.AperFunction,ComponentPad*%
%ADD15O,2.000000X1.600000*%
%TD*%
%TA.AperFunction,ComponentPad*%
%ADD16O,1.600000X2.000000*%
%TD*%
%TA.AperFunction,SMDPad,CuDef*%
%ADD17RoundRect,0.250000X0.625000X-0.312500X0.625000X0.312500X-0.625000X0.312500X-0.625000X-0.312500X0*%
%TD*%
%TA.AperFunction,SMDPad,CuDef*%
%ADD18RoundRect,0.250000X-0.625000X0.312500X-0.625000X-0.312500X0.625000X-0.312500X0.625000X0.312500X0*%
%TD*%
%TA.AperFunction,ComponentPad*%
%ADD19R,1.350000X1.350000*%
%TD*%
%TA.AperFunction,ComponentPad*%
%ADD20C,1.350000*%
%TD*%
%TA.AperFunction,ViaPad*%
%ADD21C,1.600000*%
%TD*%
%TA.AperFunction,Conductor*%
%ADD22C,0.400000*%
%TD*%
G04 APERTURE END LIST*
D10*
%TO.P,J4,1,Pin_1*%
%TO.N,Net-(J4-Pin_1)*%
X199390000Y-102870000D03*
%TD*%
D11*
%TO.P,Q5,1,G*%
%TO.N,Net-(Q5-G)*%
X167035000Y-87315000D03*
%TO.P,Q5,2,S*%
%TO.N,GND*%
X167035000Y-89215000D03*
%TO.P,Q5,3,D*%
%TO.N,Net-(Q5-D)*%
X168910000Y-88265000D03*
%TD*%
%TO.P,Q9,1,G*%
%TO.N,Net-(Q8-D)*%
X198785000Y-79060000D03*
%TO.P,Q9,2,S*%
%TO.N,5V*%
X198785000Y-80960000D03*
%TO.P,Q9,3,D*%
%TO.N,Net-(J1-Pin_1)*%
X200660000Y-80010000D03*
%TD*%
D12*
%TO.P,H3,1*%
%TO.N,N/C*%
X206375000Y-76200000D03*
%TD*%
D13*
%TO.P,R20,1*%
%TO.N,GND*%
X169795000Y-98425000D03*
%TO.P,R20,2*%
%TO.N,Net-(J3-Pin_1)*%
X172720000Y-98425000D03*
%TD*%
D14*
%TO.P,R8,1*%
%TO.N,Net-(Q4-G)*%
X172720000Y-93980000D03*
%TO.P,R8,2*%
%TO.N,Net-(U1-GP2)*%
X169795000Y-93980000D03*
%TD*%
D15*
%TO.P,U1,1,5V*%
%TO.N,5V*%
X115570000Y-80645000D03*
%TO.P,U1,2,GND*%
%TO.N,GND*%
X115570000Y-83185000D03*
%TO.P,U1,3,3V3*%
%TO.N,unconnected-(U1-3V3-Pad3)*%
X115570000Y-85725000D03*
%TO.P,U1,4,GP29_ADC3*%
%TO.N,unconnected-(U1-GP29_ADC3-Pad4)*%
X115570000Y-88265000D03*
%TO.P,U1,5,GP28_ADC2*%
%TO.N,unconnected-(U1-GP28_ADC2-Pad5)*%
X115570000Y-90805000D03*
%TO.P,U1,6,GP27_ADC1*%
%TO.N,unconnected-(U1-GP27_ADC1-Pad6)*%
X115570000Y-93345000D03*
%TO.P,U1,7,GP26_ADC0*%
%TO.N,unconnected-(U1-GP26_ADC0-Pad7)*%
X115570000Y-95885000D03*
%TO.P,U1,8,GP15*%
%TO.N,unconnected-(U1-GP15-Pad8)*%
X115570000Y-98425000D03*
%TO.P,U1,9,GP14*%
%TO.N,unconnected-(U1-GP14-Pad9)*%
X115570000Y-100965000D03*
D16*
%TO.P,U1,10,GP13*%
%TO.N,unconnected-(U1-GP13-Pad10)*%
X118110000Y-100965000D03*
%TO.P,U1,11,GP12*%
%TO.N,unconnected-(U1-GP12-Pad11)*%
X120650000Y-100965000D03*
%TO.P,U1,12,GP11*%
%TO.N,unconnected-(U1-GP11-Pad12)*%
X123190000Y-100965000D03*
%TO.P,U1,13,GP10*%
%TO.N,unconnected-(U1-GP10-Pad13)*%
X125730000Y-100965000D03*
%TO.P,U1,14,GP9*%
%TO.N,unconnected-(U1-GP9-Pad14)*%
X128270000Y-100965000D03*
D15*
%TO.P,U1,15,GP8*%
%TO.N,unconnected-(U1-GP8-Pad15)*%
X130810000Y-100965000D03*
%TO.P,U1,16,GP7*%
%TO.N,unconnected-(U1-GP7-Pad16)*%
X130810000Y-98425000D03*
%TO.P,U1,17,GP6*%
%TO.N,unconnected-(U1-GP6-Pad17)*%
X130810000Y-95885000D03*
%TO.P,U1,18,GP5*%
%TO.N,Net-(U1-GP5)*%
X130810000Y-93345000D03*
%TO.P,U1,19,GP4*%
%TO.N,Net-(U1-GP4)*%
X130810000Y-90805000D03*
%TO.P,U1,20,GP3*%
%TO.N,Net-(U1-GP3)*%
X130810000Y-88265000D03*
%TO.P,U1,21,GP2*%
%TO.N,Net-(U1-GP2)*%
X130810000Y-85725000D03*
%TO.P,U1,22,GP1*%
%TO.N,Net-(U1-GP1)*%
X130810000Y-83185000D03*
%TO.P,U1,23,GP0*%
%TO.N,Net-(U1-GP0)*%
X130810000Y-80645000D03*
%TD*%
D10*
%TO.P,J3,1,Pin_1*%
%TO.N,Net-(J3-Pin_1)*%
X172720000Y-102870000D03*
%TD*%
D11*
%TO.P,Q1,1,G*%
%TO.N,Net-(Q1-G)*%
X156845000Y-87000000D03*
%TO.P,Q1,2,S*%
%TO.N,Net-(J2-Pin_1)*%
X156845000Y-88900000D03*
%TO.P,Q1,3,D*%
%TO.N,Net-(J1-Pin_3)*%
X158720000Y-87950000D03*
%TD*%
D17*
%TO.P,R3,1*%
%TO.N,Net-(U1-GP5)*%
X184785000Y-92075000D03*
%TO.P,R3,2*%
%TO.N,Net-(Q8-G)*%
X184785000Y-89150000D03*
%TD*%
D18*
%TO.P,R5,1*%
%TO.N,Net-(U1-GP3)*%
X167005000Y-81087500D03*
%TO.P,R5,2*%
%TO.N,Net-(Q5-G)*%
X167005000Y-84012500D03*
%TD*%
D12*
%TO.P,H1,1*%
%TO.N,N/C*%
X110490000Y-106045000D03*
%TD*%
D17*
%TO.P,R12,1*%
%TO.N,Net-(Q7-G)*%
X207010000Y-85475000D03*
%TO.P,R12,2*%
%TO.N,Net-(U1-GP4)*%
X207010000Y-82550000D03*
%TD*%
D12*
%TO.P,H2,1*%
%TO.N,N/C*%
X110490000Y-76200000D03*
%TD*%
D17*
%TO.P,R4,1*%
%TO.N,Net-(U1-GP0)*%
X153035000Y-91190000D03*
%TO.P,R4,2*%
%TO.N,Net-(Q1-G)*%
X153035000Y-88265000D03*
%TD*%
D10*
%TO.P,J2,1,Pin_1*%
%TO.N,Net-(J2-Pin_1)*%
X154305000Y-102870000D03*
%TD*%
D14*
%TO.P,R10,1*%
%TO.N,5V*%
X196600000Y-92710000D03*
%TO.P,R10,2*%
%TO.N,Net-(Q8-D)*%
X193675000Y-92710000D03*
%TD*%
D12*
%TO.P,H4,1*%
%TO.N,N/C*%
X206375000Y-106045000D03*
%TD*%
D11*
%TO.P,Q3,1,G*%
%TO.N,Net-(Q2-D)*%
X156845000Y-79380000D03*
%TO.P,Q3,2,S*%
%TO.N,5V*%
X156845000Y-81280000D03*
%TO.P,Q3,3,D*%
%TO.N,Net-(J1-Pin_3)*%
X158720000Y-80330000D03*
%TD*%
%TO.P,Q2,1,G*%
%TO.N,Net-(Q2-G)*%
X147017500Y-87315000D03*
%TO.P,Q2,2,S*%
%TO.N,GND*%
X147017500Y-89215000D03*
%TO.P,Q2,3,D*%
%TO.N,Net-(Q2-D)*%
X148892500Y-88265000D03*
%TD*%
D13*
%TO.P,R25,1*%
%TO.N,GND*%
X151380000Y-95885000D03*
%TO.P,R25,2*%
%TO.N,Net-(J2-Pin_1)*%
X154305000Y-95885000D03*
%TD*%
D14*
%TO.P,R6,1*%
%TO.N,5V*%
X173355000Y-84455000D03*
%TO.P,R6,2*%
%TO.N,Net-(Q5-D)*%
X170430000Y-84455000D03*
%TD*%
D11*
%TO.P,Q7,1,G*%
%TO.N,Net-(Q7-G)*%
X199390000Y-87000000D03*
%TO.P,Q7,2,S*%
%TO.N,Net-(J4-Pin_1)*%
X199390000Y-88900000D03*
%TO.P,Q7,3,D*%
%TO.N,Net-(J1-Pin_1)*%
X201265000Y-87950000D03*
%TD*%
%TO.P,Q6,1,G*%
%TO.N,Net-(Q5-D)*%
X175925000Y-79380000D03*
%TO.P,Q6,2,S*%
%TO.N,5V*%
X175925000Y-81280000D03*
%TO.P,Q6,3,D*%
%TO.N,Net-(J1-Pin_2)*%
X177800000Y-80330000D03*
%TD*%
D17*
%TO.P,R2,1*%
%TO.N,5V*%
X152400000Y-82300000D03*
%TO.P,R2,2*%
%TO.N,Net-(Q2-D)*%
X152400000Y-79375000D03*
%TD*%
D19*
%TO.P,J1,1,Pin_1*%
%TO.N,Net-(J1-Pin_1)*%
X190595000Y-79375000D03*
D20*
%TO.P,J1,2,Pin_2*%
%TO.N,Net-(J1-Pin_2)*%
X188595000Y-79375000D03*
%TO.P,J1,3,Pin_3*%
%TO.N,Net-(J1-Pin_3)*%
X186595000Y-79375000D03*
%TD*%
D13*
%TO.P,R1,1*%
%TO.N,Net-(U1-GP1)*%
X138872500Y-87630000D03*
%TO.P,R1,2*%
%TO.N,Net-(Q2-G)*%
X141797500Y-87630000D03*
%TD*%
D14*
%TO.P,R7,1*%
%TO.N,GND*%
X146242500Y-93980000D03*
%TO.P,R7,2*%
%TO.N,Net-(J4-Pin_1)*%
X143317500Y-93980000D03*
%TD*%
D11*
%TO.P,Q8,1,G*%
%TO.N,Net-(Q8-G)*%
X190500000Y-87000000D03*
%TO.P,Q8,2,S*%
%TO.N,GND*%
X190500000Y-88900000D03*
%TO.P,Q8,3,D*%
%TO.N,Net-(Q8-D)*%
X192375000Y-87950000D03*
%TD*%
%TO.P,Q4,1,G*%
%TO.N,Net-(Q4-G)*%
X175592500Y-87315000D03*
%TO.P,Q4,2,S*%
%TO.N,Net-(J3-Pin_1)*%
X175592500Y-89215000D03*
%TO.P,Q4,3,D*%
%TO.N,Net-(J1-Pin_2)*%
X177467500Y-88265000D03*
%TD*%
D21*
%TO.N,Net-(Q2-D)*%
X149860000Y-79375000D03*
X149860000Y-85090000D03*
%TO.N,5V*%
X177165000Y-84455000D03*
X194310000Y-84455000D03*
X177165000Y-75565000D03*
%TO.N,Net-(U1-GP5)*%
X180340000Y-108585000D03*
X180340000Y-97155000D03*
%TO.N,Net-(U1-GP3)*%
X135890000Y-89535000D03*
X162560000Y-89535000D03*
%TO.N,Net-(U1-GP2)*%
X166370000Y-93980000D03*
X140970000Y-93980000D03*
%TO.N,Net-(U1-GP4)*%
X204470000Y-82550000D03*
X204470000Y-89535000D03*
%TD*%
D22*
%TO.N,Net-(U1-GP3)*%
X133350000Y-88265000D02*
X130810000Y-88265000D01*
X134620000Y-89535000D02*
X133350000Y-88265000D01*
X135890000Y-89535000D02*
X134620000Y-89535000D01*
%TO.N,GND*%
X154305000Y-89535000D02*
X151130000Y-89535000D01*
X155257500Y-90487500D02*
X154305000Y-89535000D01*
X154305000Y-92710000D02*
X155257500Y-91757500D01*
X152400000Y-92710000D02*
X154305000Y-92710000D01*
X151380000Y-93730000D02*
X152400000Y-92710000D01*
X151380000Y-95885000D02*
X151380000Y-93730000D01*
X155257500Y-91757500D02*
X155257500Y-90487500D01*
%TO.N,5V*%
X175895000Y-84455000D02*
X177165000Y-84455000D01*
X175925000Y-81280000D02*
X175925000Y-84425000D01*
X175925000Y-84425000D02*
X175895000Y-84455000D01*
X173355000Y-84455000D02*
X175895000Y-84455000D01*
%TO.N,Net-(U1-GP4)*%
X134620000Y-90805000D02*
X130810000Y-90805000D01*
X151130000Y-107315000D02*
X134620000Y-90805000D01*
X198755000Y-107315000D02*
X151130000Y-107315000D01*
X204470000Y-101600000D02*
X198755000Y-107315000D01*
X204470000Y-89535000D02*
X204470000Y-101600000D01*
%TO.N,Net-(J4-Pin_1)*%
X151765000Y-106045000D02*
X193675000Y-106045000D01*
%TO.N,GND*%
X164465000Y-105410000D02*
X167005000Y-102870000D01*
X151380000Y-103755000D02*
X153035000Y-105410000D01*
X153035000Y-105410000D02*
X164465000Y-105410000D01*
X167005000Y-102870000D02*
X169795000Y-102870000D01*
X151380000Y-95885000D02*
X151380000Y-103755000D01*
%TO.N,Net-(J4-Pin_1)*%
X143317500Y-97597500D02*
X151765000Y-106045000D01*
X143317500Y-93980000D02*
X143317500Y-97597500D01*
%TO.N,Net-(Q2-D)*%
X152400000Y-79375000D02*
X149860000Y-79375000D01*
%TO.N,Net-(J2-Pin_1)*%
X154940000Y-93980000D02*
X155575000Y-93980000D01*
X154305000Y-94615000D02*
X154940000Y-93980000D01*
X154305000Y-95885000D02*
X154305000Y-94615000D01*
X154305000Y-102870000D02*
X154305000Y-95885000D01*
%TO.N,Net-(Q7-G)*%
X200275000Y-85475000D02*
X207010000Y-85475000D01*
X199390000Y-86360000D02*
X200275000Y-85475000D01*
X199390000Y-87000000D02*
X199390000Y-86360000D01*
%TO.N,Net-(J1-Pin_1)*%
X201295000Y-81280000D02*
X200660000Y-80645000D01*
X200660000Y-80645000D02*
X200660000Y-80010000D01*
X208280000Y-81280000D02*
X201295000Y-81280000D01*
X208915000Y-81915000D02*
X208280000Y-81280000D01*
X208915000Y-86360000D02*
X208915000Y-81915000D01*
X207325000Y-87950000D02*
X208915000Y-86360000D01*
X201265000Y-87950000D02*
X207325000Y-87950000D01*
%TO.N,5V*%
X196215000Y-84455000D02*
X196850000Y-85090000D01*
X194310000Y-84455000D02*
X196215000Y-84455000D01*
%TO.N,Net-(J1-Pin_2)*%
X188595000Y-80010000D02*
X187960000Y-80645000D01*
X187960000Y-80645000D02*
X180975000Y-80645000D01*
X188595000Y-79375000D02*
X188595000Y-80010000D01*
X179390000Y-80330000D02*
X180340000Y-81280000D01*
X177800000Y-80330000D02*
X179390000Y-80330000D01*
X179070000Y-88265000D02*
X180340000Y-86995000D01*
X177467500Y-88265000D02*
X179070000Y-88265000D01*
X180340000Y-86995000D02*
X180340000Y-81280000D01*
%TO.N,GND*%
X164465000Y-95250000D02*
X164465000Y-92710000D01*
X167640000Y-98425000D02*
X164465000Y-95250000D01*
X164465000Y-92710000D02*
X167035000Y-90140000D01*
X169795000Y-98425000D02*
X167640000Y-98425000D01*
X167035000Y-90140000D02*
X167035000Y-89215000D01*
%TO.N,Net-(U1-GP3)*%
X162560000Y-83820000D02*
X162560000Y-89535000D01*
X165292500Y-81087500D02*
X162560000Y-83820000D01*
X167005000Y-81087500D02*
X165292500Y-81087500D01*
%TO.N,GND*%
X151130000Y-86995000D02*
X151130000Y-89535000D01*
X151765000Y-86360000D02*
X151130000Y-86995000D01*
X151765000Y-84455000D02*
X151765000Y-86360000D01*
X146050000Y-78740000D02*
X151765000Y-84455000D01*
X122555000Y-83185000D02*
X127000000Y-78740000D01*
X115570000Y-83185000D02*
X122555000Y-83185000D01*
X127000000Y-78740000D02*
X146050000Y-78740000D01*
%TO.N,Net-(U1-GP2)*%
X140970000Y-92495764D02*
X140970000Y-93980000D01*
X134199236Y-85725000D02*
X140970000Y-92495764D01*
X130810000Y-85725000D02*
X134199236Y-85725000D01*
%TO.N,Net-(J1-Pin_3)*%
X158720000Y-78770000D02*
X158720000Y-80330000D01*
X184690000Y-77470000D02*
X160020000Y-77470000D01*
X160020000Y-77470000D02*
X158720000Y-78770000D01*
X158720000Y-87950000D02*
X158720000Y-80330000D01*
X186595000Y-79375000D02*
X184690000Y-77470000D01*
%TO.N,Net-(J1-Pin_1)*%
X194945000Y-78105000D02*
X193675000Y-79375000D01*
X200025000Y-78105000D02*
X194945000Y-78105000D01*
X193675000Y-79375000D02*
X190595000Y-79375000D01*
X200660000Y-78740000D02*
X200025000Y-78105000D01*
X200660000Y-80010000D02*
X200660000Y-78740000D01*
%TO.N,Net-(Q1-G)*%
X154305000Y-88265000D02*
X153035000Y-88265000D01*
X155570000Y-87000000D02*
X154305000Y-88265000D01*
X156845000Y-87000000D02*
X155570000Y-87000000D01*
%TO.N,Net-(Q2-G)*%
X144145000Y-87630000D02*
X141797500Y-87630000D01*
X144460000Y-87315000D02*
X144145000Y-87630000D01*
X147017500Y-87315000D02*
X144460000Y-87315000D01*
%TO.N,Net-(Q2-D)*%
X152405000Y-79380000D02*
X152400000Y-79375000D01*
X149860000Y-86360000D02*
X148892500Y-87327500D01*
X156845000Y-79380000D02*
X152405000Y-79380000D01*
X148892500Y-87327500D02*
X148892500Y-88265000D01*
X149860000Y-85090000D02*
X149860000Y-86360000D01*
%TO.N,5V*%
X156210000Y-77470000D02*
X147955000Y-77470000D01*
X121285000Y-77470000D02*
X118110000Y-80645000D01*
X150880000Y-82300000D02*
X147955000Y-79375000D01*
X198785000Y-83155000D02*
X198785000Y-80960000D01*
X147955000Y-79375000D02*
X147955000Y-77470000D01*
X196850000Y-85090000D02*
X198785000Y-83155000D01*
X152400000Y-82300000D02*
X150880000Y-82300000D01*
X196600000Y-85340000D02*
X196850000Y-85090000D01*
X156845000Y-81280000D02*
X155575000Y-81280000D01*
X158115000Y-75565000D02*
X156210000Y-77470000D01*
X147955000Y-77470000D02*
X121285000Y-77470000D01*
X155575000Y-81280000D02*
X154555000Y-82300000D01*
X196600000Y-92710000D02*
X196600000Y-85340000D01*
X177165000Y-75565000D02*
X158115000Y-75565000D01*
X154555000Y-82300000D02*
X152400000Y-82300000D01*
X118110000Y-80645000D02*
X115570000Y-80645000D01*
%TO.N,Net-(Q5-G)*%
X167035000Y-87315000D02*
X167035000Y-84042500D01*
X167035000Y-84042500D02*
X167005000Y-84012500D01*
%TO.N,GND*%
X153709920Y-92710000D02*
X153715920Y-92704000D01*
X148590000Y-89535000D02*
X148270000Y-89215000D01*
X190500000Y-88900000D02*
X190500000Y-90805000D01*
X151130000Y-89535000D02*
X148590000Y-89535000D01*
X148270000Y-89215000D02*
X147017500Y-89215000D01*
X190500000Y-90805000D02*
X175895000Y-105410000D01*
X169795000Y-102870000D02*
X169795000Y-98425000D01*
X175895000Y-105410000D02*
X170815000Y-105410000D01*
X146242500Y-92517500D02*
X147017500Y-91742500D01*
X169795000Y-104390000D02*
X169795000Y-104140000D01*
X146242500Y-93980000D02*
X146242500Y-92517500D01*
X147017500Y-91742500D02*
X147017500Y-89215000D01*
X169795000Y-104140000D02*
X169795000Y-102870000D01*
X170815000Y-105410000D02*
X169795000Y-104390000D01*
%TO.N,Net-(U1-GP1)*%
X134427500Y-83185000D02*
X130810000Y-83185000D01*
X138872500Y-87630000D02*
X134427500Y-83185000D01*
%TO.N,Net-(U1-GP5)*%
X184785000Y-94615000D02*
X184785000Y-92075000D01*
X151130000Y-108585000D02*
X135890000Y-93345000D01*
X135890000Y-93345000D02*
X130810000Y-93345000D01*
X182245000Y-97155000D02*
X184785000Y-94615000D01*
X180340000Y-108585000D02*
X151130000Y-108585000D01*
X180340000Y-97155000D02*
X182245000Y-97155000D01*
%TO.N,Net-(U1-GP0)*%
X142240000Y-92075000D02*
X144145000Y-92075000D01*
X144780000Y-95885000D02*
X145415000Y-96520000D01*
X146685000Y-96520000D02*
X148590000Y-94615000D01*
X149157500Y-91190000D02*
X153035000Y-91190000D01*
X140335000Y-90170000D02*
X142240000Y-92075000D01*
X134750580Y-80645000D02*
X130810000Y-80645000D01*
X144780000Y-92710000D02*
X144780000Y-95885000D01*
X144145000Y-92075000D02*
X144780000Y-92710000D01*
X148590000Y-91757500D02*
X149157500Y-91190000D01*
X148590000Y-94615000D02*
X148590000Y-91757500D01*
X134750580Y-80645000D02*
X140335000Y-86229420D01*
X145415000Y-96520000D02*
X146685000Y-96520000D01*
X140335000Y-86229420D02*
X140335000Y-90170000D01*
%TO.N,Net-(U1-GP2)*%
X169581471Y-93766471D02*
X169795000Y-93980000D01*
X166583529Y-93766471D02*
X169581471Y-93766471D01*
X166370000Y-93980000D02*
X166583529Y-93766471D01*
%TO.N,Net-(U1-GP4)*%
X207010000Y-82550000D02*
X204470000Y-82550000D01*
%TO.N,Net-(Q4-G)*%
X175592500Y-87315000D02*
X174305000Y-87315000D01*
X172720000Y-88900000D02*
X172720000Y-93980000D01*
X174305000Y-87315000D02*
X172720000Y-88900000D01*
%TO.N,Net-(Q5-D)*%
X170430000Y-86110000D02*
X170430000Y-84455000D01*
X175925000Y-79380000D02*
X173350000Y-79380000D01*
X170430000Y-82300000D02*
X170430000Y-84455000D01*
X168910000Y-88265000D02*
X168910000Y-87630000D01*
X173350000Y-79380000D02*
X170430000Y-82300000D01*
X168910000Y-87630000D02*
X170430000Y-86110000D01*
%TO.N,Net-(Q8-G)*%
X190500000Y-87000000D02*
X186935000Y-87000000D01*
X186935000Y-87000000D02*
X184785000Y-89150000D01*
%TO.N,Net-(Q8-D)*%
X193675000Y-90170000D02*
X192375000Y-88870000D01*
X193675000Y-92710000D02*
X193675000Y-90170000D01*
X192375000Y-83850000D02*
X197165000Y-79060000D01*
X197165000Y-79060000D02*
X198785000Y-79060000D01*
X192375000Y-88870000D02*
X192375000Y-87950000D01*
X192375000Y-87950000D02*
X192375000Y-83850000D01*
%TO.N,Net-(J2-Pin_1)*%
X156845000Y-92710000D02*
X155575000Y-93980000D01*
X156845000Y-88900000D02*
X156845000Y-92710000D01*
%TO.N,Net-(J3-Pin_1)*%
X172720000Y-98425000D02*
X173990000Y-98425000D01*
X172720000Y-102870000D02*
X172720000Y-98425000D01*
X173990000Y-98425000D02*
X175592500Y-96822500D01*
X175592500Y-96822500D02*
X175592500Y-89215000D01*
%TO.N,Net-(J1-Pin_2)*%
X180340000Y-81280000D02*
X180975000Y-80645000D01*
%TO.N,Net-(J4-Pin_1)*%
X193675000Y-106045000D02*
X196850000Y-102870000D01*
X199390000Y-88900000D02*
X199390000Y-102870000D01*
X196850000Y-102870000D02*
X199390000Y-102870000D01*
%TD*%
%TA.AperFunction,Conductor*%
%TO.N,GND*%
G36*
X207623472Y-72255695D02*
G01*
X207915306Y-72272084D01*
X207929103Y-72273638D01*
X208213827Y-72322015D01*
X208227384Y-72325109D01*
X208504899Y-72405060D01*
X208518025Y-72409653D01*
X208784841Y-72520172D01*
X208797355Y-72526198D01*
X208997541Y-72636836D01*
X209050125Y-72665899D01*
X209061899Y-72673297D01*
X209297430Y-72840415D01*
X209308302Y-72849085D01*
X209471075Y-72994548D01*
X209523642Y-73041524D01*
X209533475Y-73051357D01*
X209725914Y-73266697D01*
X209734584Y-73277569D01*
X209901702Y-73513100D01*
X209909100Y-73524874D01*
X210048797Y-73777637D01*
X210054830Y-73790165D01*
X210165346Y-74056975D01*
X210169939Y-74070100D01*
X210249890Y-74347615D01*
X210252984Y-74361172D01*
X210301359Y-74645885D01*
X210302916Y-74659703D01*
X210319305Y-74951527D01*
X210319500Y-74958480D01*
X210319500Y-107286519D01*
X210319305Y-107293472D01*
X210302916Y-107585296D01*
X210301359Y-107599114D01*
X210252984Y-107883827D01*
X210249890Y-107897384D01*
X210169939Y-108174899D01*
X210165346Y-108188024D01*
X210054830Y-108454834D01*
X210048797Y-108467362D01*
X209909100Y-108720125D01*
X209901702Y-108731899D01*
X209734584Y-108967430D01*
X209725914Y-108978302D01*
X209533475Y-109193642D01*
X209523642Y-109203475D01*
X209308302Y-109395914D01*
X209297430Y-109404584D01*
X209061899Y-109571702D01*
X209050125Y-109579100D01*
X208797362Y-109718797D01*
X208784834Y-109724830D01*
X208518024Y-109835346D01*
X208504899Y-109839939D01*
X208227384Y-109919890D01*
X208213827Y-109922984D01*
X207929114Y-109971359D01*
X207915296Y-109972916D01*
X207623472Y-109989305D01*
X207616519Y-109989500D01*
X180964608Y-109989500D01*
X180897569Y-109969815D01*
X180851814Y-109917011D01*
X180841870Y-109847853D01*
X180870895Y-109784297D01*
X180908313Y-109755015D01*
X180922218Y-109747929D01*
X181021610Y-109697287D01*
X181114590Y-109629732D01*
X181187213Y-109576971D01*
X181187215Y-109576968D01*
X181187219Y-109576966D01*
X181331966Y-109432219D01*
X181331968Y-109432215D01*
X181331971Y-109432213D01*
X181384732Y-109359590D01*
X181452287Y-109266610D01*
X181545220Y-109084219D01*
X181608477Y-108889534D01*
X181640500Y-108687352D01*
X181640500Y-108482648D01*
X181608477Y-108280466D01*
X181608476Y-108280462D01*
X181608476Y-108280461D01*
X181575125Y-108177818D01*
X181573130Y-108107977D01*
X181609210Y-108048144D01*
X181671911Y-108017316D01*
X181693056Y-108015500D01*
X198823996Y-108015500D01*
X198915040Y-107997389D01*
X198959328Y-107988580D01*
X199023069Y-107962177D01*
X199086807Y-107935777D01*
X199086808Y-107935776D01*
X199086811Y-107935775D01*
X199201543Y-107859114D01*
X200212755Y-106847902D01*
X201177798Y-105882860D01*
X203074500Y-105882860D01*
X203074500Y-106207139D01*
X203106284Y-106529857D01*
X203106287Y-106529874D01*
X203169545Y-106847902D01*
X203169548Y-106847913D01*
X203263686Y-107158247D01*
X203387786Y-107457849D01*
X203387788Y-107457854D01*
X203540646Y-107743830D01*
X203540657Y-107743848D01*
X203720811Y-108013467D01*
X203720821Y-108013481D01*
X203926546Y-108264158D01*
X204155841Y-108493453D01*
X204155846Y-108493457D01*
X204155847Y-108493458D01*
X204406524Y-108699183D01*
X204676158Y-108879347D01*
X204676167Y-108879352D01*
X204676169Y-108879353D01*
X204962145Y-109032211D01*
X204962147Y-109032211D01*
X204962153Y-109032215D01*
X205261754Y-109156314D01*
X205572077Y-109250449D01*
X205572083Y-109250450D01*
X205572086Y-109250451D01*
X205572097Y-109250454D01*
X205748290Y-109285500D01*
X205890132Y-109313714D01*
X206212857Y-109345500D01*
X206212860Y-109345500D01*
X206537140Y-109345500D01*
X206537143Y-109345500D01*
X206859868Y-109313714D01*
X207017295Y-109282399D01*
X207177902Y-109250454D01*
X207177913Y-109250451D01*
X207177913Y-109250450D01*
X207177923Y-109250449D01*
X207488246Y-109156314D01*
X207787847Y-109032215D01*
X208073842Y-108879347D01*
X208343476Y-108699183D01*
X208594153Y-108493458D01*
X208823458Y-108264153D01*
X209029183Y-108013476D01*
X209209347Y-107743842D01*
X209362215Y-107457847D01*
X209486314Y-107158246D01*
X209580449Y-106847923D01*
X209580451Y-106847913D01*
X209580454Y-106847902D01*
X209612399Y-106687295D01*
X209643714Y-106529868D01*
X209675500Y-106207143D01*
X209675500Y-105882857D01*
X209643714Y-105560132D01*
X209620122Y-105441528D01*
X209580454Y-105242097D01*
X209580451Y-105242086D01*
X209580450Y-105242083D01*
X209580449Y-105242077D01*
X209486314Y-104931754D01*
X209362215Y-104632153D01*
X209347041Y-104603765D01*
X209209353Y-104346169D01*
X209209352Y-104346167D01*
X209209347Y-104346158D01*
X209029183Y-104076524D01*
X208823458Y-103825847D01*
X208823457Y-103825846D01*
X208823453Y-103825841D01*
X208594158Y-103596546D01*
X208343481Y-103390821D01*
X208343480Y-103390820D01*
X208343476Y-103390817D01*
X208073842Y-103210653D01*
X208073837Y-103210650D01*
X208073830Y-103210646D01*
X207787854Y-103057788D01*
X207787849Y-103057786D01*
X207488247Y-102933686D01*
X207177913Y-102839548D01*
X207177902Y-102839545D01*
X206859874Y-102776287D01*
X206859857Y-102776284D01*
X206613078Y-102751979D01*
X206537143Y-102744500D01*
X206212857Y-102744500D01*
X206140099Y-102751666D01*
X205890142Y-102776284D01*
X205890125Y-102776287D01*
X205572097Y-102839545D01*
X205572086Y-102839548D01*
X205261752Y-102933686D01*
X204962150Y-103057786D01*
X204962145Y-103057788D01*
X204676169Y-103210646D01*
X204676151Y-103210657D01*
X204406532Y-103390811D01*
X204406518Y-103390821D01*
X204155841Y-103596546D01*
X203926546Y-103825841D01*
X203720821Y-104076518D01*
X203720811Y-104076532D01*
X203540657Y-104346151D01*
X203540646Y-104346169D01*
X203387788Y-104632145D01*
X203387786Y-104632150D01*
X203263686Y-104931752D01*
X203169548Y-105242086D01*
X203169545Y-105242097D01*
X203106287Y-105560125D01*
X203106284Y-105560142D01*
X203074500Y-105882860D01*
X201177798Y-105882860D01*
X201268526Y-105792132D01*
X205014111Y-102046546D01*
X205014112Y-102046545D01*
X205014114Y-102046543D01*
X205090775Y-101931811D01*
X205143580Y-101804328D01*
X205167052Y-101686328D01*
X205170500Y-101668995D01*
X205170500Y-90696744D01*
X205190185Y-90629705D01*
X205221615Y-90596426D01*
X205317215Y-90526969D01*
X205317215Y-90526968D01*
X205317219Y-90526966D01*
X205461966Y-90382219D01*
X205461968Y-90382215D01*
X205461971Y-90382213D01*
X205532753Y-90284788D01*
X205582287Y-90216610D01*
X205675220Y-90034219D01*
X205738477Y-89839534D01*
X205770500Y-89637352D01*
X205770500Y-89432648D01*
X205752262Y-89317498D01*
X205738477Y-89230465D01*
X205703384Y-89122461D01*
X205675220Y-89035781D01*
X205675218Y-89035778D01*
X205675218Y-89035776D01*
X205582285Y-88853387D01*
X205577924Y-88847384D01*
X205554445Y-88781577D01*
X205570271Y-88713524D01*
X205620378Y-88664830D01*
X205678243Y-88650500D01*
X207393996Y-88650500D01*
X207497842Y-88629843D01*
X207529328Y-88623580D01*
X207593069Y-88597177D01*
X207656807Y-88570777D01*
X207656808Y-88570776D01*
X207656811Y-88570775D01*
X207771543Y-88494114D01*
X209459114Y-86806543D01*
X209535775Y-86691811D01*
X209538321Y-86685666D01*
X209574951Y-86597232D01*
X209588580Y-86564328D01*
X209597914Y-86517402D01*
X209615500Y-86428996D01*
X209615500Y-81846007D01*
X209613251Y-81834704D01*
X209613251Y-81834703D01*
X209588580Y-81710672D01*
X209580182Y-81690398D01*
X209535777Y-81583192D01*
X209459112Y-81468454D01*
X208726545Y-80735887D01*
X208611807Y-80659222D01*
X208484332Y-80606421D01*
X208484322Y-80606418D01*
X208348996Y-80579500D01*
X208348994Y-80579500D01*
X208348993Y-80579500D01*
X201968173Y-80579500D01*
X201901134Y-80559815D01*
X201855379Y-80507011D01*
X201845435Y-80437853D01*
X201849097Y-80420905D01*
X201895097Y-80262573D01*
X201895098Y-80262567D01*
X201897999Y-80225701D01*
X201898000Y-80225694D01*
X201898000Y-79794306D01*
X201895098Y-79757431D01*
X201880391Y-79706811D01*
X201849245Y-79599606D01*
X201849244Y-79599603D01*
X201849244Y-79599602D01*
X201765581Y-79458135D01*
X201765579Y-79458133D01*
X201765576Y-79458129D01*
X201649370Y-79341923D01*
X201649362Y-79341917D01*
X201507896Y-79258255D01*
X201507894Y-79258254D01*
X201449904Y-79241406D01*
X201391018Y-79203799D01*
X201361813Y-79140326D01*
X201360500Y-79122330D01*
X201360500Y-78671004D01*
X201333581Y-78535677D01*
X201333580Y-78535676D01*
X201333580Y-78535672D01*
X201280775Y-78408189D01*
X201269904Y-78391919D01*
X201269903Y-78391917D01*
X201204114Y-78293456D01*
X200471545Y-77560887D01*
X200356807Y-77484222D01*
X200229332Y-77431421D01*
X200229322Y-77431418D01*
X200093996Y-77404500D01*
X200093994Y-77404500D01*
X200093993Y-77404500D01*
X194876007Y-77404500D01*
X194876003Y-77404500D01*
X194767590Y-77426065D01*
X194767589Y-77426065D01*
X194740681Y-77431418D01*
X194740671Y-77431420D01*
X194613190Y-77484224D01*
X194498454Y-77560887D01*
X194498453Y-77560888D01*
X193421162Y-78638181D01*
X193359839Y-78671666D01*
X193333481Y-78674500D01*
X191880764Y-78674500D01*
X191813725Y-78654815D01*
X191767970Y-78602011D01*
X191764582Y-78593833D01*
X191713797Y-78457671D01*
X191713793Y-78457664D01*
X191627547Y-78342455D01*
X191627544Y-78342452D01*
X191512335Y-78256206D01*
X191512328Y-78256202D01*
X191377482Y-78205908D01*
X191377483Y-78205908D01*
X191317883Y-78199501D01*
X191317881Y-78199500D01*
X191317873Y-78199500D01*
X191317864Y-78199500D01*
X189872129Y-78199500D01*
X189872123Y-78199501D01*
X189812516Y-78205908D01*
X189677671Y-78256202D01*
X189677664Y-78256206D01*
X189562455Y-78342452D01*
X189498758Y-78427539D01*
X189442823Y-78469410D01*
X189373132Y-78474393D01*
X189326607Y-78453545D01*
X189211099Y-78369624D01*
X189211098Y-78369623D01*
X189211096Y-78369622D01*
X189157772Y-78342452D01*
X189046235Y-78285620D01*
X189046232Y-78285619D01*
X188870265Y-78228445D01*
X188767218Y-78212124D01*
X188687514Y-78199500D01*
X188502486Y-78199500D01*
X188462028Y-78205908D01*
X188319734Y-78228445D01*
X188143767Y-78285619D01*
X188143764Y-78285620D01*
X187978903Y-78369622D01*
X187899188Y-78427539D01*
X187829213Y-78478379D01*
X187829211Y-78478381D01*
X187829210Y-78478381D01*
X187698381Y-78609210D01*
X187695314Y-78613432D01*
X187639981Y-78656094D01*
X187570367Y-78662069D01*
X187508574Y-78629459D01*
X187494686Y-78613432D01*
X187491621Y-78609213D01*
X187360787Y-78478379D01*
X187211096Y-78369622D01*
X187046235Y-78285620D01*
X187046232Y-78285619D01*
X186870265Y-78228445D01*
X186767218Y-78212124D01*
X186687514Y-78199500D01*
X186502486Y-78199500D01*
X186502482Y-78199500D01*
X186485179Y-78202240D01*
X186415886Y-78193283D01*
X186378104Y-78167447D01*
X185136546Y-76925888D01*
X185136545Y-76925887D01*
X185021807Y-76849222D01*
X184894332Y-76796421D01*
X184894322Y-76796418D01*
X184758996Y-76769500D01*
X184758994Y-76769500D01*
X184758993Y-76769500D01*
X178099047Y-76769500D01*
X178032008Y-76749815D01*
X177986253Y-76697011D01*
X177976309Y-76627853D01*
X178005334Y-76564297D01*
X178011366Y-76557819D01*
X178012219Y-76556966D01*
X178156966Y-76412219D01*
X178156968Y-76412215D01*
X178156971Y-76412213D01*
X178226425Y-76316616D01*
X178277287Y-76246610D01*
X178370220Y-76064219D01*
X178378785Y-76037860D01*
X203074500Y-76037860D01*
X203074500Y-76362139D01*
X203106284Y-76684857D01*
X203106287Y-76684874D01*
X203169545Y-77002902D01*
X203169548Y-77002913D01*
X203263686Y-77313247D01*
X203387786Y-77612849D01*
X203387788Y-77612854D01*
X203540646Y-77898830D01*
X203540657Y-77898848D01*
X203720811Y-78168467D01*
X203720821Y-78168481D01*
X203926546Y-78419158D01*
X204155841Y-78648453D01*
X204155846Y-78648457D01*
X204155847Y-78648458D01*
X204406524Y-78854183D01*
X204676158Y-79034347D01*
X204676167Y-79034352D01*
X204676169Y-79034353D01*
X204962145Y-79187211D01*
X204962147Y-79187211D01*
X204962153Y-79187215D01*
X205261754Y-79311314D01*
X205572077Y-79405449D01*
X205572083Y-79405450D01*
X205572086Y-79405451D01*
X205572097Y-79405454D01*
X205765856Y-79443994D01*
X205890132Y-79468714D01*
X206212857Y-79500500D01*
X206212860Y-79500500D01*
X206537140Y-79500500D01*
X206537143Y-79500500D01*
X206859868Y-79468714D01*
X207017295Y-79437399D01*
X207177902Y-79405454D01*
X207177913Y-79405451D01*
X207177913Y-79405450D01*
X207177923Y-79405449D01*
X207488246Y-79311314D01*
X207787847Y-79187215D01*
X208073842Y-79034347D01*
X208343476Y-78854183D01*
X208594153Y-78648458D01*
X208823458Y-78419153D01*
X209029183Y-78168476D01*
X209209347Y-77898842D01*
X209362215Y-77612847D01*
X209486314Y-77313246D01*
X209580449Y-77002923D01*
X209580451Y-77002913D01*
X209580454Y-77002902D01*
X209621525Y-76796418D01*
X209643714Y-76684868D01*
X209675500Y-76362143D01*
X209675500Y-76037857D01*
X209643714Y-75715132D01*
X209620122Y-75596528D01*
X209580454Y-75397097D01*
X209580451Y-75397086D01*
X209580450Y-75397083D01*
X209580449Y-75397077D01*
X209486314Y-75086754D01*
X209362215Y-74787153D01*
X209325137Y-74717786D01*
X209209353Y-74501169D01*
X209209352Y-74501167D01*
X209209347Y-74501158D01*
X209029183Y-74231524D01*
X208823458Y-73980847D01*
X208823457Y-73980846D01*
X208823453Y-73980841D01*
X208594158Y-73751546D01*
X208343481Y-73545821D01*
X208343480Y-73545820D01*
X208343476Y-73545817D01*
X208073842Y-73365653D01*
X208073837Y-73365650D01*
X208073830Y-73365646D01*
X207787854Y-73212788D01*
X207787849Y-73212786D01*
X207488247Y-73088686D01*
X207177913Y-72994548D01*
X207177902Y-72994545D01*
X206859874Y-72931287D01*
X206859857Y-72931284D01*
X206615812Y-72907248D01*
X206537143Y-72899500D01*
X206212857Y-72899500D01*
X206140099Y-72906666D01*
X205890142Y-72931284D01*
X205890125Y-72931287D01*
X205572097Y-72994545D01*
X205572086Y-72994548D01*
X205261752Y-73088686D01*
X204962150Y-73212786D01*
X204962145Y-73212788D01*
X204676169Y-73365646D01*
X204676151Y-73365657D01*
X204406532Y-73545811D01*
X204406518Y-73545821D01*
X204155841Y-73751546D01*
X203926546Y-73980841D01*
X203720821Y-74231518D01*
X203720811Y-74231532D01*
X203540657Y-74501151D01*
X203540646Y-74501169D01*
X203387788Y-74787145D01*
X203387786Y-74787150D01*
X203263686Y-75086752D01*
X203169548Y-75397086D01*
X203169545Y-75397097D01*
X203106287Y-75715125D01*
X203106284Y-75715142D01*
X203074500Y-76037860D01*
X178378785Y-76037860D01*
X178433477Y-75869534D01*
X178465500Y-75667352D01*
X178465500Y-75462648D01*
X178433477Y-75260466D01*
X178370220Y-75065781D01*
X178370218Y-75065778D01*
X178370218Y-75065776D01*
X178313774Y-74955000D01*
X178277287Y-74883390D01*
X178257424Y-74856051D01*
X178156971Y-74717786D01*
X178012213Y-74573028D01*
X177846613Y-74452715D01*
X177846612Y-74452714D01*
X177846610Y-74452713D01*
X177765468Y-74411369D01*
X177664223Y-74359781D01*
X177469534Y-74296522D01*
X177294995Y-74268878D01*
X177267352Y-74264500D01*
X177062648Y-74264500D01*
X177038329Y-74268351D01*
X176860465Y-74296522D01*
X176665776Y-74359781D01*
X176483386Y-74452715D01*
X176317786Y-74573028D01*
X176173030Y-74717784D01*
X176103575Y-74813384D01*
X176048245Y-74856051D01*
X176003256Y-74864500D01*
X158046004Y-74864500D01*
X157910677Y-74891418D01*
X157910667Y-74891421D01*
X157783192Y-74944222D01*
X157668454Y-75020887D01*
X157668453Y-75020888D01*
X155956162Y-76733181D01*
X155894839Y-76766666D01*
X155868481Y-76769500D01*
X121216004Y-76769500D01*
X121080677Y-76796418D01*
X121080667Y-76796421D01*
X120953192Y-76849222D01*
X120838454Y-76925887D01*
X120838453Y-76925888D01*
X117856162Y-79908181D01*
X117794839Y-79941666D01*
X117768481Y-79944500D01*
X116931744Y-79944500D01*
X116864705Y-79924815D01*
X116831425Y-79893384D01*
X116761969Y-79797784D01*
X116617213Y-79653028D01*
X116451613Y-79532715D01*
X116451612Y-79532714D01*
X116451610Y-79532713D01*
X116388389Y-79500500D01*
X116269223Y-79439781D01*
X116074534Y-79376522D01*
X115899995Y-79348878D01*
X115872352Y-79344500D01*
X115267648Y-79344500D01*
X115243329Y-79348351D01*
X115065465Y-79376522D01*
X114870776Y-79439781D01*
X114688386Y-79532715D01*
X114522786Y-79653028D01*
X114378028Y-79797786D01*
X114257715Y-79963386D01*
X114164781Y-80145776D01*
X114101522Y-80340465D01*
X114069500Y-80542648D01*
X114069500Y-80747351D01*
X114101522Y-80949534D01*
X114164781Y-81144223D01*
X114199605Y-81212567D01*
X114253620Y-81318578D01*
X114257715Y-81326613D01*
X114378028Y-81492213D01*
X114522786Y-81636971D01*
X114648893Y-81728591D01*
X114688390Y-81757287D01*
X114748668Y-81788000D01*
X114781629Y-81804795D01*
X114832425Y-81852770D01*
X114849220Y-81920591D01*
X114826682Y-81986726D01*
X114781629Y-82025765D01*
X114688650Y-82073140D01*
X114523105Y-82193417D01*
X114523104Y-82193417D01*
X114378417Y-82338104D01*
X114378417Y-82338105D01*
X114258140Y-82503650D01*
X114165244Y-82685970D01*
X114102009Y-82880586D01*
X114093391Y-82935000D01*
X115136988Y-82935000D01*
X115104075Y-82992007D01*
X115070000Y-83119174D01*
X115070000Y-83250826D01*
X115104075Y-83377993D01*
X115136988Y-83435000D01*
X114093391Y-83435000D01*
X114102009Y-83489413D01*
X114165244Y-83684029D01*
X114258140Y-83866349D01*
X114378417Y-84031894D01*
X114378417Y-84031895D01*
X114523104Y-84176582D01*
X114688652Y-84296861D01*
X114781628Y-84344234D01*
X114832425Y-84392208D01*
X114849220Y-84460029D01*
X114826683Y-84526164D01*
X114781630Y-84565203D01*
X114688388Y-84612713D01*
X114522786Y-84733028D01*
X114378028Y-84877786D01*
X114257715Y-85043386D01*
X114164781Y-85225776D01*
X114101522Y-85420465D01*
X114081219Y-85548656D01*
X114069500Y-85622648D01*
X114069500Y-85827352D01*
X114069999Y-85830500D01*
X114101522Y-86029534D01*
X114164781Y-86224223D01*
X114213678Y-86320187D01*
X114240568Y-86372962D01*
X114257715Y-86406613D01*
X114378028Y-86572213D01*
X114522786Y-86716971D01*
X114646074Y-86806543D01*
X114688390Y-86837287D01*
X114774097Y-86880957D01*
X114781080Y-86884515D01*
X114831876Y-86932490D01*
X114848671Y-87000311D01*
X114826134Y-87066446D01*
X114781080Y-87105485D01*
X114688386Y-87152715D01*
X114522786Y-87273028D01*
X114378028Y-87417786D01*
X114257715Y-87583386D01*
X114164781Y-87765776D01*
X114101522Y-87960465D01*
X114069500Y-88162648D01*
X114069500Y-88367351D01*
X114101522Y-88569534D01*
X114164781Y-88764223D01*
X114207322Y-88847712D01*
X114257230Y-88945663D01*
X114257715Y-88946613D01*
X114378028Y-89112213D01*
X114522786Y-89256971D01*
X114668022Y-89362489D01*
X114688390Y-89377287D01*
X114779840Y-89423883D01*
X114781080Y-89424515D01*
X114831876Y-89472490D01*
X114848671Y-89540311D01*
X114826134Y-89606446D01*
X114781080Y-89645485D01*
X114688386Y-89692715D01*
X114522786Y-89813028D01*
X114378028Y-89957786D01*
X114257715Y-90123386D01*
X114164781Y-90305776D01*
X114101522Y-90500465D01*
X114069500Y-90702648D01*
X114069500Y-90907351D01*
X114101522Y-91109534D01*
X114164781Y-91304223D01*
X114199994Y-91373331D01*
X114253768Y-91478868D01*
X114257715Y-91486613D01*
X114378028Y-91652213D01*
X114522786Y-91796971D01*
X114655421Y-91893334D01*
X114688390Y-91917287D01*
X114779840Y-91963883D01*
X114781080Y-91964515D01*
X114831876Y-92012490D01*
X114848671Y-92080311D01*
X114826134Y-92146446D01*
X114781080Y-92185485D01*
X114688386Y-92232715D01*
X114522786Y-92353028D01*
X114378028Y-92497786D01*
X114257715Y-92663386D01*
X114164781Y-92845776D01*
X114101522Y-93040465D01*
X114069500Y-93242648D01*
X114069500Y-93447351D01*
X114101522Y-93649534D01*
X114164781Y-93844223D01*
X114207321Y-93927710D01*
X114254250Y-94019814D01*
X114257715Y-94026613D01*
X114378028Y-94192213D01*
X114522786Y-94336971D01*
X114677749Y-94449556D01*
X114688390Y-94457287D01*
X114779840Y-94503883D01*
X114781080Y-94504515D01*
X114831876Y-94552490D01*
X114848671Y-94620311D01*
X114826134Y-94686446D01*
X114781080Y-94725485D01*
X114688386Y-94772715D01*
X114522786Y-94893028D01*
X114378032Y-95037782D01*
X114378032Y-95037783D01*
X114257715Y-95203386D01*
X114164781Y-95385776D01*
X114101522Y-95580465D01*
X114069500Y-95782648D01*
X114069500Y-95987351D01*
X114101522Y-96189534D01*
X114164781Y-96384223D01*
X114199146Y-96451666D01*
X114254354Y-96560018D01*
X114257715Y-96566613D01*
X114378028Y-96732213D01*
X114522786Y-96876971D01*
X114660090Y-96976726D01*
X114688390Y-96997287D01*
X114779840Y-97043883D01*
X114781080Y-97044515D01*
X114831876Y-97092490D01*
X114848671Y-97160311D01*
X114826134Y-97226446D01*
X114781080Y-97265485D01*
X114688386Y-97312715D01*
X114522786Y-97433028D01*
X114378028Y-97577786D01*
X114257715Y-97743386D01*
X114164781Y-97925776D01*
X114101522Y-98120465D01*
X114069500Y-98322648D01*
X114069500Y-98527351D01*
X114101522Y-98729534D01*
X114164781Y-98924223D01*
X114187655Y-98969114D01*
X114254354Y-99100018D01*
X114257715Y-99106613D01*
X114378028Y-99272213D01*
X114522786Y-99416971D01*
X114662318Y-99518345D01*
X114688390Y-99537287D01*
X114779840Y-99583883D01*
X114781080Y-99584515D01*
X114831876Y-99632490D01*
X114848671Y-99700311D01*
X114826134Y-99766446D01*
X114781080Y-99805485D01*
X114688386Y-99852715D01*
X114522786Y-99973028D01*
X114378028Y-100117786D01*
X114257715Y-100283386D01*
X114164781Y-100465776D01*
X114101522Y-100660465D01*
X114069500Y-100862648D01*
X114069500Y-101067351D01*
X114101522Y-101269534D01*
X114164781Y-101464223D01*
X114257715Y-101646613D01*
X114378028Y-101812213D01*
X114522786Y-101956971D01*
X114646074Y-102046543D01*
X114688390Y-102077287D01*
X114804607Y-102136503D01*
X114870776Y-102170218D01*
X114870778Y-102170218D01*
X114870781Y-102170220D01*
X114975137Y-102204127D01*
X115065465Y-102233477D01*
X115164874Y-102249222D01*
X115267648Y-102265500D01*
X115267649Y-102265500D01*
X115872351Y-102265500D01*
X115872352Y-102265500D01*
X116074534Y-102233477D01*
X116269219Y-102170220D01*
X116451610Y-102077287D01*
X116544590Y-102009732D01*
X116617213Y-101956971D01*
X116617215Y-101956968D01*
X116617219Y-101956966D01*
X116761966Y-101812219D01*
X116771293Y-101799381D01*
X116826620Y-101756713D01*
X116896233Y-101750731D01*
X116958030Y-101783333D01*
X116982098Y-101815965D01*
X116997714Y-101846613D01*
X117118028Y-102012213D01*
X117262786Y-102156971D01*
X117412166Y-102265500D01*
X117428390Y-102277287D01*
X117523771Y-102325886D01*
X117610776Y-102370218D01*
X117610778Y-102370218D01*
X117610781Y-102370220D01*
X117715137Y-102404127D01*
X117805465Y-102433477D01*
X117906557Y-102449488D01*
X118007648Y-102465500D01*
X118007649Y-102465500D01*
X118212351Y-102465500D01*
X118212352Y-102465500D01*
X118414534Y-102433477D01*
X118609219Y-102370220D01*
X118791610Y-102277287D01*
X118884590Y-102209732D01*
X118957213Y-102156971D01*
X118957215Y-102156968D01*
X118957219Y-102156966D01*
X119101966Y-102012219D01*
X119101968Y-102012215D01*
X119101971Y-102012213D01*
X119222284Y-101846614D01*
X119222286Y-101846611D01*
X119222287Y-101846610D01*
X119269516Y-101753917D01*
X119317489Y-101703123D01*
X119385310Y-101686328D01*
X119451445Y-101708865D01*
X119490483Y-101753917D01*
X119505472Y-101783333D01*
X119537715Y-101846614D01*
X119658028Y-102012213D01*
X119802786Y-102156971D01*
X119952166Y-102265500D01*
X119968390Y-102277287D01*
X120063771Y-102325886D01*
X120150776Y-102370218D01*
X120150778Y-102370218D01*
X120150781Y-102370220D01*
X120255137Y-102404127D01*
X120345465Y-102433477D01*
X120446557Y-102449488D01*
X120547648Y-102465500D01*
X120547649Y-102465500D01*
X120752351Y-102465500D01*
X120752352Y-102465500D01*
X120954534Y-102433477D01*
X121149219Y-102370220D01*
X121331610Y-102277287D01*
X121424590Y-102209732D01*
X121497213Y-102156971D01*
X121497215Y-102156968D01*
X121497219Y-102156966D01*
X121641966Y-102012219D01*
X121641968Y-102012215D01*
X121641971Y-102012213D01*
X121762284Y-101846614D01*
X121762286Y-101846611D01*
X121762287Y-101846610D01*
X121809516Y-101753917D01*
X121857489Y-101703123D01*
X121925310Y-101686328D01*
X121991445Y-101708865D01*
X122030483Y-101753917D01*
X122045472Y-101783333D01*
X122077715Y-101846614D01*
X122198028Y-102012213D01*
X122342786Y-102156971D01*
X122492166Y-102265500D01*
X122508390Y-102277287D01*
X122603771Y-102325886D01*
X122690776Y-102370218D01*
X122690778Y-102370218D01*
X122690781Y-102370220D01*
X122795137Y-102404127D01*
X122885465Y-102433477D01*
X122986557Y-102449488D01*
X123087648Y-102465500D01*
X123087649Y-102465500D01*
X123292351Y-102465500D01*
X123292352Y-102465500D01*
X123494534Y-102433477D01*
X123689219Y-102370220D01*
X123871610Y-102277287D01*
X123964590Y-102209732D01*
X124037213Y-102156971D01*
X124037215Y-102156968D01*
X124037219Y-102156966D01*
X124181966Y-102012219D01*
X124181968Y-102012215D01*
X124181971Y-102012213D01*
X124302284Y-101846614D01*
X124302286Y-101846611D01*
X124302287Y-101846610D01*
X124349516Y-101753917D01*
X124397489Y-101703123D01*
X124465310Y-101686328D01*
X124531445Y-101708865D01*
X124570483Y-101753917D01*
X124585472Y-101783333D01*
X124617715Y-101846614D01*
X124738028Y-102012213D01*
X124882786Y-102156971D01*
X125032166Y-102265500D01*
X125048390Y-102277287D01*
X125143771Y-102325886D01*
X125230776Y-102370218D01*
X125230778Y-102370218D01*
X125230781Y-102370220D01*
X125335137Y-102404127D01*
X125425465Y-102433477D01*
X125526557Y-102449488D01*
X125627648Y-102465500D01*
X125627649Y-102465500D01*
X125832351Y-102465500D01*
X125832352Y-102465500D01*
X126034534Y-102433477D01*
X126229219Y-102370220D01*
X126411610Y-102277287D01*
X126504590Y-102209732D01*
X126577213Y-102156971D01*
X126577215Y-102156968D01*
X126577219Y-102156966D01*
X126721966Y-102012219D01*
X126721968Y-102012215D01*
X126721971Y-102012213D01*
X126842284Y-101846614D01*
X126842286Y-101846611D01*
X126842287Y-101846610D01*
X126889516Y-101753917D01*
X126937489Y-101703123D01*
X127005310Y-101686328D01*
X127071445Y-101708865D01*
X127110483Y-101753917D01*
X127125472Y-101783333D01*
X127157715Y-101846614D01*
X127278028Y-102012213D01*
X127422786Y-102156971D01*
X127572166Y-102265500D01*
X127588390Y-102277287D01*
X127683771Y-102325886D01*
X127770776Y-102370218D01*
X127770778Y-102370218D01*
X127770781Y-102370220D01*
X127875137Y-102404127D01*
X127965465Y-102433477D01*
X128066557Y-102449488D01*
X128167648Y-102465500D01*
X128167649Y-102465500D01*
X128372351Y-102465500D01*
X128372352Y-102465500D01*
X128574534Y-102433477D01*
X128769219Y-102370220D01*
X128951610Y-102277287D01*
X129044590Y-102209732D01*
X129117213Y-102156971D01*
X129117215Y-102156968D01*
X129117219Y-102156966D01*
X129261966Y-102012219D01*
X129261968Y-102012215D01*
X129261971Y-102012213D01*
X129382286Y-101846611D01*
X129397900Y-101815968D01*
X129445874Y-101765172D01*
X129513695Y-101748376D01*
X129579830Y-101770913D01*
X129608704Y-101799378D01*
X129618030Y-101812215D01*
X129762786Y-101956971D01*
X129886074Y-102046543D01*
X129928390Y-102077287D01*
X130044607Y-102136503D01*
X130110776Y-102170218D01*
X130110778Y-102170218D01*
X130110781Y-102170220D01*
X130215137Y-102204127D01*
X130305465Y-102233477D01*
X130404874Y-102249222D01*
X130507648Y-102265500D01*
X130507649Y-102265500D01*
X131112351Y-102265500D01*
X131112352Y-102265500D01*
X131314534Y-102233477D01*
X131509219Y-102170220D01*
X131691610Y-102077287D01*
X131784590Y-102009732D01*
X131857213Y-101956971D01*
X131857215Y-101956968D01*
X131857219Y-101956966D01*
X132001966Y-101812219D01*
X132001968Y-101812215D01*
X132001971Y-101812213D01*
X132093430Y-101686328D01*
X132122287Y-101646610D01*
X132215220Y-101464219D01*
X132278477Y-101269534D01*
X132310500Y-101067352D01*
X132310500Y-100862648D01*
X132278477Y-100660466D01*
X132215220Y-100465781D01*
X132215218Y-100465778D01*
X132215218Y-100465776D01*
X132132527Y-100303488D01*
X132122287Y-100283390D01*
X132048350Y-100181623D01*
X132001971Y-100117786D01*
X131857213Y-99973028D01*
X131691614Y-99852715D01*
X131685006Y-99849348D01*
X131598917Y-99805483D01*
X131548123Y-99757511D01*
X131531328Y-99689690D01*
X131553865Y-99623555D01*
X131598917Y-99584516D01*
X131691610Y-99537287D01*
X131717682Y-99518345D01*
X131857213Y-99416971D01*
X131857215Y-99416968D01*
X131857219Y-99416966D01*
X132001966Y-99272219D01*
X132001968Y-99272215D01*
X132001971Y-99272213D01*
X132088546Y-99153051D01*
X132122287Y-99106610D01*
X132215220Y-98924219D01*
X132278477Y-98729534D01*
X132310500Y-98527352D01*
X132310500Y-98322648D01*
X132301731Y-98267284D01*
X132278477Y-98120465D01*
X132215218Y-97925776D01*
X132179410Y-97855500D01*
X132122287Y-97743390D01*
X132090119Y-97699114D01*
X132001971Y-97577786D01*
X131857213Y-97433028D01*
X131691614Y-97312715D01*
X131681071Y-97307343D01*
X131598917Y-97265483D01*
X131548123Y-97217511D01*
X131531328Y-97149690D01*
X131553865Y-97083555D01*
X131598917Y-97044516D01*
X131691610Y-96997287D01*
X131719917Y-96976721D01*
X131857213Y-96876971D01*
X131857215Y-96876968D01*
X131857219Y-96876966D01*
X132001966Y-96732219D01*
X132001968Y-96732215D01*
X132001971Y-96732213D01*
X132057505Y-96655776D01*
X132122287Y-96566610D01*
X132215220Y-96384219D01*
X132278477Y-96189534D01*
X132310500Y-95987352D01*
X132310500Y-95782648D01*
X132278477Y-95580465D01*
X132228771Y-95427488D01*
X132215220Y-95385781D01*
X132215218Y-95385778D01*
X132215218Y-95385776D01*
X132166321Y-95289812D01*
X132122287Y-95203390D01*
X132052476Y-95107302D01*
X132001968Y-95037783D01*
X131857213Y-94893028D01*
X131691614Y-94772715D01*
X131685006Y-94769348D01*
X131598917Y-94725483D01*
X131548123Y-94677511D01*
X131531328Y-94609690D01*
X131553865Y-94543555D01*
X131598917Y-94504516D01*
X131691610Y-94457287D01*
X131755771Y-94410672D01*
X131857213Y-94336971D01*
X131857215Y-94336968D01*
X131857219Y-94336966D01*
X132001966Y-94192219D01*
X132071425Y-94096615D01*
X132126755Y-94053949D01*
X132171744Y-94045500D01*
X135548481Y-94045500D01*
X135615520Y-94065185D01*
X135636162Y-94081819D01*
X150683453Y-109129111D01*
X150683454Y-109129112D01*
X150798192Y-109205777D01*
X150906054Y-109250454D01*
X150925672Y-109258580D01*
X150925676Y-109258580D01*
X150925677Y-109258581D01*
X151061003Y-109285500D01*
X151061006Y-109285500D01*
X151061007Y-109285500D01*
X179178256Y-109285500D01*
X179245295Y-109305185D01*
X179278575Y-109336616D01*
X179348030Y-109432215D01*
X179492786Y-109576971D01*
X179647749Y-109689556D01*
X179658390Y-109697287D01*
X179751713Y-109744837D01*
X179771687Y-109755015D01*
X179822483Y-109802990D01*
X179839278Y-109870811D01*
X179816740Y-109936946D01*
X179762025Y-109980397D01*
X179715392Y-109989500D01*
X109248481Y-109989500D01*
X109241528Y-109989305D01*
X108949703Y-109972916D01*
X108935885Y-109971359D01*
X108651172Y-109922984D01*
X108637615Y-109919890D01*
X108360100Y-109839939D01*
X108346975Y-109835346D01*
X108080165Y-109724830D01*
X108067637Y-109718797D01*
X107814874Y-109579100D01*
X107803100Y-109571702D01*
X107567569Y-109404584D01*
X107556697Y-109395914D01*
X107403020Y-109258580D01*
X107341355Y-109203473D01*
X107331524Y-109193642D01*
X107273858Y-109129114D01*
X107139085Y-108978302D01*
X107130415Y-108967430D01*
X106963297Y-108731899D01*
X106955899Y-108720125D01*
X106830622Y-108493453D01*
X106816198Y-108467355D01*
X106810172Y-108454841D01*
X106699653Y-108188024D01*
X106695060Y-108174899D01*
X106615109Y-107897384D01*
X106612015Y-107883827D01*
X106603486Y-107833631D01*
X106563638Y-107599103D01*
X106562084Y-107585306D01*
X106545695Y-107293472D01*
X106545500Y-107286519D01*
X106545500Y-105882860D01*
X107189500Y-105882860D01*
X107189500Y-106207139D01*
X107221284Y-106529857D01*
X107221287Y-106529874D01*
X107284545Y-106847902D01*
X107284548Y-106847913D01*
X107378686Y-107158247D01*
X107502786Y-107457849D01*
X107502788Y-107457854D01*
X107655646Y-107743830D01*
X107655657Y-107743848D01*
X107835811Y-108013467D01*
X107835821Y-108013481D01*
X108041546Y-108264158D01*
X108270841Y-108493453D01*
X108270846Y-108493457D01*
X108270847Y-108493458D01*
X108521524Y-108699183D01*
X108791158Y-108879347D01*
X108791167Y-108879352D01*
X108791169Y-108879353D01*
X109077145Y-109032211D01*
X109077147Y-109032211D01*
X109077153Y-109032215D01*
X109376754Y-109156314D01*
X109687077Y-109250449D01*
X109687083Y-109250450D01*
X109687086Y-109250451D01*
X109687097Y-109250454D01*
X109863290Y-109285500D01*
X110005132Y-109313714D01*
X110327857Y-109345500D01*
X110327860Y-109345500D01*
X110652140Y-109345500D01*
X110652143Y-109345500D01*
X110974868Y-109313714D01*
X111132295Y-109282399D01*
X111292902Y-109250454D01*
X111292913Y-109250451D01*
X111292913Y-109250450D01*
X111292923Y-109250449D01*
X111603246Y-109156314D01*
X111902847Y-109032215D01*
X112188842Y-108879347D01*
X112458476Y-108699183D01*
X112709153Y-108493458D01*
X112938458Y-108264153D01*
X113144183Y-108013476D01*
X113324347Y-107743842D01*
X113477215Y-107457847D01*
X113601314Y-107158246D01*
X113695449Y-106847923D01*
X113695451Y-106847913D01*
X113695454Y-106847902D01*
X113727399Y-106687295D01*
X113758714Y-106529868D01*
X113790500Y-106207143D01*
X113790500Y-105882857D01*
X113758714Y-105560132D01*
X113735122Y-105441528D01*
X113695454Y-105242097D01*
X113695451Y-105242086D01*
X113695450Y-105242083D01*
X113695449Y-105242077D01*
X113601314Y-104931754D01*
X113477215Y-104632153D01*
X113462041Y-104603765D01*
X113324353Y-104346169D01*
X113324352Y-104346167D01*
X113324347Y-104346158D01*
X113144183Y-104076524D01*
X112938458Y-103825847D01*
X112938457Y-103825846D01*
X112938453Y-103825841D01*
X112709158Y-103596546D01*
X112458481Y-103390821D01*
X112458480Y-103390820D01*
X112458476Y-103390817D01*
X112188842Y-103210653D01*
X112188837Y-103210650D01*
X112188830Y-103210646D01*
X111902854Y-103057788D01*
X111902849Y-103057786D01*
X111603247Y-102933686D01*
X111292913Y-102839548D01*
X111292902Y-102839545D01*
X110974874Y-102776287D01*
X110974857Y-102776284D01*
X110728078Y-102751979D01*
X110652143Y-102744500D01*
X110327857Y-102744500D01*
X110255099Y-102751666D01*
X110005142Y-102776284D01*
X110005125Y-102776287D01*
X109687097Y-102839545D01*
X109687086Y-102839548D01*
X109376752Y-102933686D01*
X109077150Y-103057786D01*
X109077145Y-103057788D01*
X108791169Y-103210646D01*
X108791151Y-103210657D01*
X108521532Y-103390811D01*
X108521518Y-103390821D01*
X108270841Y-103596546D01*
X108041546Y-103825841D01*
X107835821Y-104076518D01*
X107835811Y-104076532D01*
X107655657Y-104346151D01*
X107655646Y-104346169D01*
X107502788Y-104632145D01*
X107502786Y-104632150D01*
X107378686Y-104931752D01*
X107284548Y-105242086D01*
X107284545Y-105242097D01*
X107221287Y-105560125D01*
X107221284Y-105560142D01*
X107189500Y-105882860D01*
X106545500Y-105882860D01*
X106545500Y-76037860D01*
X107189500Y-76037860D01*
X107189500Y-76362139D01*
X107221284Y-76684857D01*
X107221287Y-76684874D01*
X107284545Y-77002902D01*
X107284548Y-77002913D01*
X107378686Y-77313247D01*
X107502786Y-77612849D01*
X107502788Y-77612854D01*
X107655646Y-77898830D01*
X107655657Y-77898848D01*
X107835811Y-78168467D01*
X107835821Y-78168481D01*
X108041546Y-78419158D01*
X108270841Y-78648453D01*
X108270846Y-78648457D01*
X108270847Y-78648458D01*
X108521524Y-78854183D01*
X108791158Y-79034347D01*
X108791167Y-79034352D01*
X108791169Y-79034353D01*
X109077145Y-79187211D01*
X109077147Y-79187211D01*
X109077153Y-79187215D01*
X109376754Y-79311314D01*
X109687077Y-79405449D01*
X109687083Y-79405450D01*
X109687086Y-79405451D01*
X109687097Y-79405454D01*
X109880856Y-79443994D01*
X110005132Y-79468714D01*
X110327857Y-79500500D01*
X110327860Y-79500500D01*
X110652140Y-79500500D01*
X110652143Y-79500500D01*
X110974868Y-79468714D01*
X111132295Y-79437399D01*
X111292902Y-79405454D01*
X111292913Y-79405451D01*
X111292913Y-79405450D01*
X111292923Y-79405449D01*
X111603246Y-79311314D01*
X111902847Y-79187215D01*
X112188842Y-79034347D01*
X112458476Y-78854183D01*
X112709153Y-78648458D01*
X112938458Y-78419153D01*
X113144183Y-78168476D01*
X113324347Y-77898842D01*
X113477215Y-77612847D01*
X113601314Y-77313246D01*
X113695449Y-77002923D01*
X113695451Y-77002913D01*
X113695454Y-77002902D01*
X113736525Y-76796418D01*
X113758714Y-76684868D01*
X113790500Y-76362143D01*
X113790500Y-76037857D01*
X113758714Y-75715132D01*
X113735122Y-75596528D01*
X113695454Y-75397097D01*
X113695451Y-75397086D01*
X113695450Y-75397083D01*
X113695449Y-75397077D01*
X113601314Y-75086754D01*
X113477215Y-74787153D01*
X113440137Y-74717786D01*
X113324353Y-74501169D01*
X113324352Y-74501167D01*
X113324347Y-74501158D01*
X113144183Y-74231524D01*
X112938458Y-73980847D01*
X112938457Y-73980846D01*
X112938453Y-73980841D01*
X112709158Y-73751546D01*
X112458481Y-73545821D01*
X112458480Y-73545820D01*
X112458476Y-73545817D01*
X112188842Y-73365653D01*
X112188837Y-73365650D01*
X112188830Y-73365646D01*
X111902854Y-73212788D01*
X111902849Y-73212786D01*
X111603247Y-73088686D01*
X111292913Y-72994548D01*
X111292902Y-72994545D01*
X110974874Y-72931287D01*
X110974857Y-72931284D01*
X110730812Y-72907248D01*
X110652143Y-72899500D01*
X110327857Y-72899500D01*
X110255099Y-72906666D01*
X110005142Y-72931284D01*
X110005125Y-72931287D01*
X109687097Y-72994545D01*
X109687086Y-72994548D01*
X109376752Y-73088686D01*
X109077150Y-73212786D01*
X109077145Y-73212788D01*
X108791169Y-73365646D01*
X108791151Y-73365657D01*
X108521532Y-73545811D01*
X108521518Y-73545821D01*
X108270841Y-73751546D01*
X108041546Y-73980841D01*
X107835821Y-74231518D01*
X107835811Y-74231532D01*
X107655657Y-74501151D01*
X107655646Y-74501169D01*
X107502788Y-74787145D01*
X107502786Y-74787150D01*
X107378686Y-75086752D01*
X107284548Y-75397086D01*
X107284545Y-75397097D01*
X107221287Y-75715125D01*
X107221284Y-75715142D01*
X107189500Y-76037860D01*
X106545500Y-76037860D01*
X106545500Y-74958480D01*
X106545695Y-74951527D01*
X106546105Y-74944222D01*
X106562084Y-74659691D01*
X106563638Y-74645898D01*
X106612015Y-74361167D01*
X106615109Y-74347615D01*
X106629829Y-74296523D01*
X106695061Y-74070096D01*
X106699653Y-74056975D01*
X106700568Y-74054767D01*
X106810175Y-73790151D01*
X106816195Y-73777651D01*
X106955902Y-73524868D01*
X106963297Y-73513100D01*
X107130422Y-73277559D01*
X107139077Y-73266705D01*
X107331534Y-73051346D01*
X107341346Y-73041534D01*
X107556705Y-72849077D01*
X107567559Y-72840422D01*
X107803105Y-72673293D01*
X107814868Y-72665902D01*
X108067651Y-72526195D01*
X108080151Y-72520175D01*
X108346979Y-72409651D01*
X108360096Y-72405061D01*
X108637621Y-72325107D01*
X108651167Y-72322015D01*
X108935898Y-72273638D01*
X108949691Y-72272084D01*
X109241528Y-72255695D01*
X109248481Y-72255500D01*
X109310892Y-72255500D01*
X207554108Y-72255500D01*
X207616519Y-72255500D01*
X207623472Y-72255695D01*
G37*
%TD.AperFunction*%
%TA.AperFunction,Conductor*%
G36*
X147197539Y-78190185D02*
G01*
X147243294Y-78242989D01*
X147254500Y-78294500D01*
X147254500Y-79306006D01*
X147254500Y-79443994D01*
X147254500Y-79443996D01*
X147254499Y-79443996D01*
X147281418Y-79579322D01*
X147281421Y-79579332D01*
X147334222Y-79706807D01*
X147410887Y-79821545D01*
X150433454Y-82844112D01*
X150548192Y-82920777D01*
X150642889Y-82960001D01*
X150675672Y-82973580D01*
X150675676Y-82973580D01*
X150675677Y-82973581D01*
X150811003Y-83000500D01*
X150811006Y-83000500D01*
X150811007Y-83000500D01*
X151063332Y-83000500D01*
X151130371Y-83020185D01*
X151168870Y-83059403D01*
X151182285Y-83081152D01*
X151182288Y-83081156D01*
X151306344Y-83205212D01*
X151455666Y-83297314D01*
X151622203Y-83352499D01*
X151724991Y-83363000D01*
X153075008Y-83362999D01*
X153177797Y-83352499D01*
X153344334Y-83297314D01*
X153493656Y-83205212D01*
X153617712Y-83081156D01*
X153623337Y-83072034D01*
X153631130Y-83059403D01*
X153683078Y-83012678D01*
X153736668Y-83000500D01*
X154623996Y-83000500D01*
X154715040Y-82982389D01*
X154759328Y-82973580D01*
X154852469Y-82935000D01*
X154886807Y-82920777D01*
X154886808Y-82920776D01*
X154886811Y-82920775D01*
X155001543Y-82844114D01*
X155813979Y-82031677D01*
X155875300Y-81998194D01*
X155944991Y-82003178D01*
X155964776Y-82012626D01*
X155997102Y-82031744D01*
X156038724Y-82043836D01*
X156154926Y-82077597D01*
X156154929Y-82077597D01*
X156154931Y-82077598D01*
X156191806Y-82080500D01*
X156191814Y-82080500D01*
X157498186Y-82080500D01*
X157498194Y-82080500D01*
X157535069Y-82077598D01*
X157535071Y-82077597D01*
X157535073Y-82077597D01*
X157576691Y-82065505D01*
X157692898Y-82031744D01*
X157832380Y-81949254D01*
X157900103Y-81932072D01*
X157966365Y-81954232D01*
X158010129Y-82008698D01*
X158019500Y-82055987D01*
X158019500Y-86224012D01*
X157999815Y-86291051D01*
X157947011Y-86336806D01*
X157877853Y-86346750D01*
X157832379Y-86330744D01*
X157721211Y-86265000D01*
X157692898Y-86248256D01*
X157692897Y-86248255D01*
X157692896Y-86248255D01*
X157692893Y-86248254D01*
X157535073Y-86202402D01*
X157535067Y-86202401D01*
X157498201Y-86199500D01*
X157498194Y-86199500D01*
X156191806Y-86199500D01*
X156191798Y-86199500D01*
X156154932Y-86202401D01*
X156154926Y-86202402D01*
X155997106Y-86248254D01*
X155997103Y-86248255D01*
X155979068Y-86258921D01*
X155950234Y-86275974D01*
X155939652Y-86282232D01*
X155876531Y-86299500D01*
X155501005Y-86299500D01*
X155431677Y-86313290D01*
X155397012Y-86320186D01*
X155365671Y-86326420D01*
X155365670Y-86326420D01*
X155238190Y-86379224D01*
X155123454Y-86455887D01*
X154254205Y-87325136D01*
X154192882Y-87358621D01*
X154123190Y-87353637D01*
X154101433Y-87342997D01*
X153979334Y-87267686D01*
X153812797Y-87212501D01*
X153812795Y-87212500D01*
X153710010Y-87202000D01*
X152359998Y-87202000D01*
X152359981Y-87202001D01*
X152257203Y-87212500D01*
X152257200Y-87212501D01*
X152090668Y-87267685D01*
X152090663Y-87267687D01*
X151941342Y-87359789D01*
X151817289Y-87483842D01*
X151725187Y-87633163D01*
X151725186Y-87633166D01*
X151670001Y-87799703D01*
X151670001Y-87799704D01*
X151670000Y-87799704D01*
X151659500Y-87902483D01*
X151659500Y-88627501D01*
X151659501Y-88627519D01*
X151670000Y-88730296D01*
X151670001Y-88730299D01*
X151710789Y-88853386D01*
X151725186Y-88896834D01*
X151817288Y-89046156D01*
X151941344Y-89170212D01*
X152090666Y-89262314D01*
X152257203Y-89317499D01*
X152359991Y-89328000D01*
X153710008Y-89327999D01*
X153812797Y-89317499D01*
X153979334Y-89262314D01*
X154128656Y-89170212D01*
X154252712Y-89046156D01*
X154262534Y-89030232D01*
X154266130Y-89024403D01*
X154318078Y-88977678D01*
X154367958Y-88966343D01*
X154367934Y-88966097D01*
X154369887Y-88965904D01*
X154371668Y-88965500D01*
X154373996Y-88965500D01*
X154503134Y-88939812D01*
X154509328Y-88938580D01*
X154593285Y-88903804D01*
X154636807Y-88885777D01*
X154636808Y-88885776D01*
X154636811Y-88885775D01*
X154751543Y-88809114D01*
X155810837Y-87749819D01*
X155872158Y-87716336D01*
X155941849Y-87721320D01*
X155961636Y-87730769D01*
X155997102Y-87751744D01*
X156038724Y-87763836D01*
X156154926Y-87797597D01*
X156154929Y-87797597D01*
X156154931Y-87797598D01*
X156191806Y-87800500D01*
X157358000Y-87800500D01*
X157366685Y-87803050D01*
X157375647Y-87801762D01*
X157399687Y-87812740D01*
X157425039Y-87820185D01*
X157430966Y-87827025D01*
X157439203Y-87830787D01*
X157453492Y-87853021D01*
X157470794Y-87872989D01*
X157473081Y-87883503D01*
X157476977Y-87889565D01*
X157482000Y-87924500D01*
X157482000Y-87975500D01*
X157462315Y-88042539D01*
X157409511Y-88088294D01*
X157358000Y-88099500D01*
X156191798Y-88099500D01*
X156154932Y-88102401D01*
X156154926Y-88102402D01*
X155997106Y-88148254D01*
X155997103Y-88148255D01*
X155855637Y-88231917D01*
X155855629Y-88231923D01*
X155739423Y-88348129D01*
X155739417Y-88348137D01*
X155655755Y-88489603D01*
X155655754Y-88489606D01*
X155609902Y-88647426D01*
X155609901Y-88647432D01*
X155607000Y-88684298D01*
X155607000Y-89115701D01*
X155609901Y-89152567D01*
X155609902Y-89152573D01*
X155655754Y-89310393D01*
X155655755Y-89310396D01*
X155739417Y-89451862D01*
X155739423Y-89451870D01*
X155855629Y-89568076D01*
X155855633Y-89568079D01*
X155855635Y-89568081D01*
X155855637Y-89568082D01*
X155996320Y-89651282D01*
X155997102Y-89651744D01*
X156055095Y-89668592D01*
X156113980Y-89706197D01*
X156143187Y-89769669D01*
X156144500Y-89787668D01*
X156144500Y-92368481D01*
X156124815Y-92435520D01*
X156108181Y-92456162D01*
X155321162Y-93243181D01*
X155259839Y-93276666D01*
X155233481Y-93279500D01*
X154871004Y-93279500D01*
X154735677Y-93306418D01*
X154735667Y-93306421D01*
X154608192Y-93359222D01*
X154493454Y-93435887D01*
X153760887Y-94168454D01*
X153684222Y-94283192D01*
X153631421Y-94410667D01*
X153631418Y-94410679D01*
X153612302Y-94506783D01*
X153612299Y-94506796D01*
X153611762Y-94509501D01*
X153604500Y-94546007D01*
X153604500Y-94557764D01*
X153603073Y-94567089D01*
X153592106Y-94590536D01*
X153584815Y-94615370D01*
X153576823Y-94623214D01*
X153573473Y-94630380D01*
X153562456Y-94637319D01*
X153545600Y-94653868D01*
X153523843Y-94667288D01*
X153399789Y-94791342D01*
X153307687Y-94940663D01*
X153307685Y-94940668D01*
X153293965Y-94982072D01*
X153252501Y-95107203D01*
X153252501Y-95107204D01*
X153252500Y-95107204D01*
X153242000Y-95209983D01*
X153242000Y-96560001D01*
X153242001Y-96560018D01*
X153252500Y-96662796D01*
X153252501Y-96662799D01*
X153307685Y-96829331D01*
X153307687Y-96829336D01*
X153320720Y-96850466D01*
X153399788Y-96978656D01*
X153523844Y-97102712D01*
X153545594Y-97116127D01*
X153592320Y-97168073D01*
X153604500Y-97221667D01*
X153604500Y-101128455D01*
X153584815Y-101195494D01*
X153532011Y-101241249D01*
X153527957Y-101243014D01*
X153506957Y-101251713D01*
X153506940Y-101251721D01*
X153302545Y-101369730D01*
X153115302Y-101513406D01*
X153115295Y-101513412D01*
X152948412Y-101680295D01*
X152948406Y-101680302D01*
X152804730Y-101867545D01*
X152686719Y-102071943D01*
X152686714Y-102071954D01*
X152596394Y-102290006D01*
X152535306Y-102517989D01*
X152504501Y-102751979D01*
X152504500Y-102751995D01*
X152504500Y-102988004D01*
X152504501Y-102988020D01*
X152535306Y-103222010D01*
X152596394Y-103449993D01*
X152686714Y-103668045D01*
X152686719Y-103668056D01*
X152757677Y-103790957D01*
X152804727Y-103872450D01*
X152804729Y-103872453D01*
X152804730Y-103872454D01*
X152948406Y-104059697D01*
X152948412Y-104059704D01*
X153115295Y-104226587D01*
X153115301Y-104226592D01*
X153302550Y-104370273D01*
X153433918Y-104446118D01*
X153506943Y-104488280D01*
X153506948Y-104488282D01*
X153506951Y-104488284D01*
X153725007Y-104578606D01*
X153952986Y-104639693D01*
X154186989Y-104670500D01*
X154186996Y-104670500D01*
X154423004Y-104670500D01*
X154423011Y-104670500D01*
X154657014Y-104639693D01*
X154884993Y-104578606D01*
X155103049Y-104488284D01*
X155307450Y-104370273D01*
X155494699Y-104226592D01*
X155661592Y-104059699D01*
X155805273Y-103872450D01*
X155923284Y-103668049D01*
X156013606Y-103449993D01*
X156074693Y-103222014D01*
X156105500Y-102988011D01*
X156105500Y-102751989D01*
X156074693Y-102517986D01*
X156013606Y-102290007D01*
X155923284Y-102071951D01*
X155923282Y-102071948D01*
X155923280Y-102071943D01*
X155842374Y-101931811D01*
X155805273Y-101867550D01*
X155661592Y-101680301D01*
X155661587Y-101680295D01*
X155494704Y-101513412D01*
X155494697Y-101513406D01*
X155307454Y-101369730D01*
X155307453Y-101369729D01*
X155307450Y-101369727D01*
X155203728Y-101309843D01*
X155103059Y-101251721D01*
X155103051Y-101251717D01*
X155103049Y-101251716D01*
X155103042Y-101251713D01*
X155082043Y-101243014D01*
X155027641Y-101199172D01*
X155005579Y-101132877D01*
X155005500Y-101128455D01*
X155005500Y-99099986D01*
X168732501Y-99099986D01*
X168742994Y-99202697D01*
X168798141Y-99369119D01*
X168798143Y-99369124D01*
X168890184Y-99518345D01*
X169014154Y-99642315D01*
X169163375Y-99734356D01*
X169163380Y-99734358D01*
X169329802Y-99789505D01*
X169329809Y-99789506D01*
X169432519Y-99799999D01*
X169544999Y-99799999D01*
X170045000Y-99799999D01*
X170157472Y-99799999D01*
X170157486Y-99799998D01*
X170260197Y-99789505D01*
X170426619Y-99734358D01*
X170426624Y-99734356D01*
X170575845Y-99642315D01*
X170699815Y-99518345D01*
X170791856Y-99369124D01*
X170791858Y-99369119D01*
X170847005Y-99202697D01*
X170847006Y-99202690D01*
X170857499Y-99099986D01*
X170857500Y-99099973D01*
X170857500Y-98675000D01*
X170045000Y-98675000D01*
X170045000Y-99799999D01*
X169544999Y-99799999D01*
X169545000Y-99799998D01*
X169545000Y-98675000D01*
X168732501Y-98675000D01*
X168732501Y-99099986D01*
X155005500Y-99099986D01*
X155005500Y-97750013D01*
X168732500Y-97750013D01*
X168732500Y-98175000D01*
X169545000Y-98175000D01*
X170045000Y-98175000D01*
X170857499Y-98175000D01*
X170857499Y-97750028D01*
X170857498Y-97750013D01*
X170847005Y-97647302D01*
X170791858Y-97480880D01*
X170791856Y-97480875D01*
X170699815Y-97331654D01*
X170575845Y-97207684D01*
X170426624Y-97115643D01*
X170426619Y-97115641D01*
X170260197Y-97060494D01*
X170260190Y-97060493D01*
X170157486Y-97050000D01*
X170045000Y-97050000D01*
X170045000Y-98175000D01*
X169545000Y-98175000D01*
X169545000Y-97050000D01*
X169432527Y-97050000D01*
X169432512Y-97050001D01*
X169329802Y-97060494D01*
X169163380Y-97115641D01*
X169163375Y-97115643D01*
X169014154Y-97207684D01*
X168890184Y-97331654D01*
X168798143Y-97480875D01*
X168798141Y-97480880D01*
X168742994Y-97647302D01*
X168742993Y-97647309D01*
X168732500Y-97750013D01*
X155005500Y-97750013D01*
X155005500Y-97221667D01*
X155025185Y-97154628D01*
X155064405Y-97116127D01*
X155086156Y-97102712D01*
X155210212Y-96978656D01*
X155302314Y-96829334D01*
X155357499Y-96662797D01*
X155368000Y-96560009D01*
X155367999Y-95209992D01*
X155367951Y-95209527D01*
X155357499Y-95107203D01*
X155357498Y-95107200D01*
X155346383Y-95073657D01*
X155302314Y-94940666D01*
X155258477Y-94869595D01*
X155240038Y-94802204D01*
X155260961Y-94735541D01*
X155314603Y-94690771D01*
X155364017Y-94680500D01*
X155643996Y-94680500D01*
X155738964Y-94661609D01*
X155779328Y-94653580D01*
X155868792Y-94616523D01*
X155906807Y-94600777D01*
X155906808Y-94600776D01*
X155906811Y-94600775D01*
X156021543Y-94524114D01*
X156377203Y-94168454D01*
X156668010Y-93877648D01*
X165069500Y-93877648D01*
X165069500Y-94082352D01*
X165069999Y-94085500D01*
X165101522Y-94284534D01*
X165164781Y-94479223D01*
X165226716Y-94600775D01*
X165257712Y-94661609D01*
X165257715Y-94661613D01*
X165378028Y-94827213D01*
X165522786Y-94971971D01*
X165646074Y-95061543D01*
X165688390Y-95092287D01*
X165804607Y-95151503D01*
X165870776Y-95185218D01*
X165870778Y-95185218D01*
X165870781Y-95185220D01*
X165975137Y-95219127D01*
X166065465Y-95248477D01*
X166157620Y-95263073D01*
X166267648Y-95280500D01*
X166267649Y-95280500D01*
X166472351Y-95280500D01*
X166472352Y-95280500D01*
X166674534Y-95248477D01*
X166869219Y-95185220D01*
X167051610Y-95092287D01*
X167163237Y-95011186D01*
X167217213Y-94971971D01*
X167217215Y-94971968D01*
X167217219Y-94971966D01*
X167361966Y-94827219D01*
X167361968Y-94827215D01*
X167361971Y-94827213D01*
X167482284Y-94661614D01*
X167482285Y-94661613D01*
X167482287Y-94661610D01*
X167546963Y-94534675D01*
X167594938Y-94483880D01*
X167657448Y-94466971D01*
X168608001Y-94466971D01*
X168675040Y-94486656D01*
X168720795Y-94539460D01*
X168732001Y-94590971D01*
X168732001Y-94655018D01*
X168742500Y-94757796D01*
X168742501Y-94757799D01*
X168797685Y-94924331D01*
X168797687Y-94924336D01*
X168811547Y-94946807D01*
X168889788Y-95073656D01*
X169013844Y-95197712D01*
X169163166Y-95289814D01*
X169329703Y-95344999D01*
X169432491Y-95355500D01*
X170157508Y-95355499D01*
X170157516Y-95355498D01*
X170157519Y-95355498D01*
X170213802Y-95349748D01*
X170260297Y-95344999D01*
X170426834Y-95289814D01*
X170576156Y-95197712D01*
X170700212Y-95073656D01*
X170792314Y-94924334D01*
X170847499Y-94757797D01*
X170858000Y-94655009D01*
X170857999Y-93304992D01*
X170856395Y-93289294D01*
X170847499Y-93202203D01*
X170847498Y-93202200D01*
X170792314Y-93035666D01*
X170700212Y-92886344D01*
X170576156Y-92762288D01*
X170468321Y-92695775D01*
X170426836Y-92670187D01*
X170426831Y-92670185D01*
X170384476Y-92656150D01*
X170260297Y-92615001D01*
X170260295Y-92615000D01*
X170157510Y-92604500D01*
X169432498Y-92604500D01*
X169432480Y-92604501D01*
X169329703Y-92615000D01*
X169329700Y-92615001D01*
X169163168Y-92670185D01*
X169163163Y-92670187D01*
X169013842Y-92762289D01*
X168889787Y-92886344D01*
X168815326Y-93007067D01*
X168763378Y-93053792D01*
X168709787Y-93065971D01*
X167346518Y-93065971D01*
X167279479Y-93046286D01*
X167258837Y-93029652D01*
X167217213Y-92988028D01*
X167051613Y-92867715D01*
X167051612Y-92867714D01*
X167051610Y-92867713D01*
X166994653Y-92838691D01*
X166869223Y-92774781D01*
X166674534Y-92711522D01*
X166499995Y-92683878D01*
X166472352Y-92679500D01*
X166267648Y-92679500D01*
X166243329Y-92683351D01*
X166065465Y-92711522D01*
X165870776Y-92774781D01*
X165688386Y-92867715D01*
X165522786Y-92988028D01*
X165378028Y-93132786D01*
X165257715Y-93298386D01*
X165164781Y-93480776D01*
X165101522Y-93675465D01*
X165084159Y-93785095D01*
X165069500Y-93877648D01*
X156668010Y-93877648D01*
X156760563Y-93785095D01*
X157389111Y-93156546D01*
X157389112Y-93156545D01*
X157389114Y-93156543D01*
X157465775Y-93041811D01*
X157518580Y-92914329D01*
X157541145Y-92800886D01*
X157545500Y-92778993D01*
X157545500Y-89787668D01*
X157565185Y-89720629D01*
X157617989Y-89674874D01*
X157634895Y-89668595D01*
X157692898Y-89651744D01*
X157834365Y-89568081D01*
X157950581Y-89451865D01*
X157961946Y-89432648D01*
X161259500Y-89432648D01*
X161259500Y-89637352D01*
X161261779Y-89651743D01*
X161291522Y-89839534D01*
X161354781Y-90034223D01*
X161390429Y-90104184D01*
X161445873Y-90212999D01*
X161447715Y-90216613D01*
X161568028Y-90382213D01*
X161712786Y-90526971D01*
X161808385Y-90596426D01*
X161878390Y-90647287D01*
X161975455Y-90696744D01*
X162060776Y-90740218D01*
X162060778Y-90740218D01*
X162060781Y-90740220D01*
X162165137Y-90774127D01*
X162255465Y-90803477D01*
X162356557Y-90819488D01*
X162457648Y-90835500D01*
X162457649Y-90835500D01*
X162662351Y-90835500D01*
X162662352Y-90835500D01*
X162864534Y-90803477D01*
X163059219Y-90740220D01*
X163241610Y-90647287D01*
X163349054Y-90569225D01*
X163407213Y-90526971D01*
X163407215Y-90526968D01*
X163407219Y-90526966D01*
X163551966Y-90382219D01*
X163551968Y-90382215D01*
X163551971Y-90382213D01*
X163622753Y-90284788D01*
X163672287Y-90216610D01*
X163765220Y-90034219D01*
X163828477Y-89839534D01*
X163860500Y-89637352D01*
X163860500Y-89465001D01*
X165800204Y-89465001D01*
X165800399Y-89467486D01*
X165846218Y-89625198D01*
X165929814Y-89766552D01*
X165929821Y-89766561D01*
X166045938Y-89882678D01*
X166045947Y-89882685D01*
X166187303Y-89966282D01*
X166187306Y-89966283D01*
X166345004Y-90012099D01*
X166345010Y-90012100D01*
X166381850Y-90014999D01*
X166381866Y-90015000D01*
X166785000Y-90015000D01*
X167285000Y-90015000D01*
X167688134Y-90015000D01*
X167688149Y-90014999D01*
X167724989Y-90012100D01*
X167724995Y-90012099D01*
X167882693Y-89966283D01*
X167882696Y-89966282D01*
X168024052Y-89882685D01*
X168024061Y-89882678D01*
X168140178Y-89766561D01*
X168140185Y-89766552D01*
X168223781Y-89625198D01*
X168269600Y-89467486D01*
X168269795Y-89465001D01*
X168269795Y-89465000D01*
X167285000Y-89465000D01*
X167285000Y-90015000D01*
X166785000Y-90015000D01*
X166785000Y-89465000D01*
X165800205Y-89465000D01*
X165800204Y-89465001D01*
X163860500Y-89465001D01*
X163860500Y-89432648D01*
X163842262Y-89317498D01*
X163828477Y-89230465D01*
X163793384Y-89122461D01*
X163765220Y-89035781D01*
X163729154Y-88964998D01*
X165800204Y-88964998D01*
X165800205Y-88965000D01*
X166785000Y-88965000D01*
X166785000Y-88415000D01*
X166381850Y-88415000D01*
X166345010Y-88417899D01*
X166345004Y-88417900D01*
X166187306Y-88463716D01*
X166187303Y-88463717D01*
X166045947Y-88547314D01*
X166045938Y-88547321D01*
X165929821Y-88663438D01*
X165929814Y-88663447D01*
X165846218Y-88804801D01*
X165800399Y-88962513D01*
X165800204Y-88964998D01*
X163729154Y-88964998D01*
X163672287Y-88853390D01*
X163640119Y-88809114D01*
X163551971Y-88687786D01*
X163407217Y-88543032D01*
X163407212Y-88543028D01*
X163311615Y-88473573D01*
X163268949Y-88418243D01*
X163260500Y-88373255D01*
X163260500Y-84161519D01*
X163280185Y-84094480D01*
X163296819Y-84073838D01*
X165546338Y-81824319D01*
X165573265Y-81809615D01*
X165599084Y-81793023D01*
X165605284Y-81792131D01*
X165607661Y-81790834D01*
X165634019Y-81788000D01*
X165668332Y-81788000D01*
X165735371Y-81807685D01*
X165773870Y-81846903D01*
X165787285Y-81868652D01*
X165787288Y-81868656D01*
X165911344Y-81992712D01*
X166060666Y-82084814D01*
X166227203Y-82139999D01*
X166329991Y-82150500D01*
X167680008Y-82150499D01*
X167782797Y-82139999D01*
X167949334Y-82084814D01*
X168098656Y-81992712D01*
X168222712Y-81868656D01*
X168314814Y-81719334D01*
X168369999Y-81552797D01*
X168380500Y-81450009D01*
X168380499Y-80724992D01*
X168369999Y-80622203D01*
X168314814Y-80455666D01*
X168222712Y-80306344D01*
X168098656Y-80182288D01*
X168002979Y-80123274D01*
X167949336Y-80090187D01*
X167949331Y-80090185D01*
X167928656Y-80083334D01*
X167782797Y-80035001D01*
X167782795Y-80035000D01*
X167680010Y-80024500D01*
X166329998Y-80024500D01*
X166329981Y-80024501D01*
X166227203Y-80035000D01*
X166227200Y-80035001D01*
X166060668Y-80090185D01*
X166060663Y-80090187D01*
X165911342Y-80182289D01*
X165787288Y-80306343D01*
X165787285Y-80306347D01*
X165773870Y-80328097D01*
X165721922Y-80374822D01*
X165668332Y-80387000D01*
X165223504Y-80387000D01*
X165088177Y-80413918D01*
X165088167Y-80413921D01*
X164960692Y-80466722D01*
X164845954Y-80543387D01*
X162015887Y-83373454D01*
X161940154Y-83486798D01*
X161940147Y-83486808D01*
X161939232Y-83488176D01*
X161939224Y-83488190D01*
X161886420Y-83615671D01*
X161886418Y-83615677D01*
X161859500Y-83751004D01*
X161859500Y-88373255D01*
X161839815Y-88440294D01*
X161808385Y-88473573D01*
X161712787Y-88543028D01*
X161712782Y-88543032D01*
X161568028Y-88687786D01*
X161447715Y-88853386D01*
X161354781Y-89035776D01*
X161291522Y-89230465D01*
X161274502Y-89337928D01*
X161259500Y-89432648D01*
X157961946Y-89432648D01*
X158034244Y-89310398D01*
X158069368Y-89189500D01*
X158080097Y-89152573D01*
X158080098Y-89152567D01*
X158083000Y-89115694D01*
X158083000Y-88874500D01*
X158102685Y-88807461D01*
X158155489Y-88761706D01*
X158207000Y-88750500D01*
X159373186Y-88750500D01*
X159373194Y-88750500D01*
X159410069Y-88747598D01*
X159410071Y-88747597D01*
X159410073Y-88747597D01*
X159474644Y-88728837D01*
X159567898Y-88701744D01*
X159709365Y-88618081D01*
X159825581Y-88501865D01*
X159909244Y-88360398D01*
X159955098Y-88202569D01*
X159958000Y-88165694D01*
X159958000Y-87734306D01*
X159955098Y-87697431D01*
X159946571Y-87668082D01*
X159915654Y-87561666D01*
X159909244Y-87539602D01*
X159825581Y-87398135D01*
X159825579Y-87398133D01*
X159825576Y-87398129D01*
X159709370Y-87281923D01*
X159709362Y-87281917D01*
X159631181Y-87235681D01*
X159567898Y-87198256D01*
X159567897Y-87198255D01*
X159567896Y-87198255D01*
X159567894Y-87198254D01*
X159509904Y-87181406D01*
X159451018Y-87143799D01*
X159421813Y-87080326D01*
X159420500Y-87062330D01*
X159420500Y-81217668D01*
X159440185Y-81150629D01*
X159492989Y-81104874D01*
X159509895Y-81098595D01*
X159567898Y-81081744D01*
X159709365Y-80998081D01*
X159825581Y-80881865D01*
X159909244Y-80740398D01*
X159948169Y-80606418D01*
X159955097Y-80582573D01*
X159955098Y-80582567D01*
X159955283Y-80580220D01*
X159958000Y-80545694D01*
X159958000Y-80114306D01*
X159955098Y-80077431D01*
X159946716Y-80048581D01*
X159913133Y-79932989D01*
X159909244Y-79919602D01*
X159825581Y-79778135D01*
X159825579Y-79778133D01*
X159825576Y-79778129D01*
X159709370Y-79661923D01*
X159709362Y-79661917D01*
X159631181Y-79615681D01*
X159567898Y-79578256D01*
X159567897Y-79578255D01*
X159567896Y-79578255D01*
X159567894Y-79578254D01*
X159509904Y-79561406D01*
X159451018Y-79523799D01*
X159421813Y-79460326D01*
X159420500Y-79442330D01*
X159420500Y-79111519D01*
X159440185Y-79044480D01*
X159456819Y-79023838D01*
X160273838Y-78206819D01*
X160335161Y-78173334D01*
X160361519Y-78170500D01*
X184348481Y-78170500D01*
X184415520Y-78190185D01*
X184436162Y-78206819D01*
X185387447Y-79158104D01*
X185420932Y-79219427D01*
X185422240Y-79265179D01*
X185419500Y-79282481D01*
X185419500Y-79467513D01*
X185448445Y-79650265D01*
X185491307Y-79782182D01*
X185493302Y-79852023D01*
X185457221Y-79911856D01*
X185394520Y-79942684D01*
X185373376Y-79944500D01*
X180906004Y-79944500D01*
X180770677Y-79971418D01*
X180770667Y-79971421D01*
X180643192Y-80024222D01*
X180528456Y-80100886D01*
X180427680Y-80201662D01*
X180366357Y-80235146D01*
X180296665Y-80230162D01*
X180252318Y-80201661D01*
X179836546Y-79785888D01*
X179836545Y-79785887D01*
X179721807Y-79709222D01*
X179594332Y-79656421D01*
X179594322Y-79656418D01*
X179458996Y-79629500D01*
X179458994Y-79629500D01*
X179458993Y-79629500D01*
X178768469Y-79629500D01*
X178705348Y-79612232D01*
X178649710Y-79579328D01*
X178647898Y-79578256D01*
X178647897Y-79578255D01*
X178647896Y-79578255D01*
X178647893Y-79578254D01*
X178490073Y-79532402D01*
X178490067Y-79532401D01*
X178453201Y-79529500D01*
X178453194Y-79529500D01*
X177287000Y-79529500D01*
X177219961Y-79509815D01*
X177174206Y-79457011D01*
X177163000Y-79405500D01*
X177163000Y-79164313D01*
X177162999Y-79164298D01*
X177160098Y-79127432D01*
X177160097Y-79127426D01*
X177114245Y-78969606D01*
X177114244Y-78969603D01*
X177114244Y-78969602D01*
X177030581Y-78828135D01*
X177030579Y-78828133D01*
X177030576Y-78828129D01*
X176914370Y-78711923D01*
X176914362Y-78711917D01*
X176830501Y-78662322D01*
X176772898Y-78628256D01*
X176772897Y-78628255D01*
X176772896Y-78628255D01*
X176772893Y-78628254D01*
X176615073Y-78582402D01*
X176615067Y-78582401D01*
X176578201Y-78579500D01*
X176578194Y-78579500D01*
X175271806Y-78579500D01*
X175271798Y-78579500D01*
X175234932Y-78582401D01*
X175234926Y-78582402D01*
X175077106Y-78628254D01*
X175077103Y-78628255D01*
X175048128Y-78645391D01*
X175019928Y-78662069D01*
X175019652Y-78662232D01*
X174956531Y-78679500D01*
X173281004Y-78679500D01*
X173145677Y-78706418D01*
X173145667Y-78706421D01*
X173018192Y-78759222D01*
X172903454Y-78835887D01*
X169885887Y-81853454D01*
X169809222Y-81968192D01*
X169756421Y-82095667D01*
X169756418Y-82095679D01*
X169732050Y-82218186D01*
X169732049Y-82218191D01*
X169729500Y-82231002D01*
X169729500Y-83118331D01*
X169709815Y-83185370D01*
X169670600Y-83223868D01*
X169648843Y-83237288D01*
X169524789Y-83361342D01*
X169432687Y-83510663D01*
X169432685Y-83510668D01*
X169420580Y-83547200D01*
X169377501Y-83677203D01*
X169377501Y-83677204D01*
X169377500Y-83677204D01*
X169367000Y-83779983D01*
X169367000Y-85130001D01*
X169367001Y-85130018D01*
X169377500Y-85232796D01*
X169377501Y-85232799D01*
X169432685Y-85399331D01*
X169432687Y-85399336D01*
X169445720Y-85420466D01*
X169524788Y-85548656D01*
X169648844Y-85672712D01*
X169656255Y-85677283D01*
X169702979Y-85729231D01*
X169714202Y-85798194D01*
X169686358Y-85862276D01*
X169678839Y-85870503D01*
X168467168Y-87082173D01*
X168405845Y-87115658D01*
X168336153Y-87110674D01*
X168280220Y-87068802D01*
X168260411Y-87029087D01*
X168229750Y-86923555D01*
X168224244Y-86904602D01*
X168140581Y-86763135D01*
X168140576Y-86763129D01*
X168024370Y-86646923D01*
X168024362Y-86646917D01*
X167946181Y-86600681D01*
X167882898Y-86563256D01*
X167882897Y-86563255D01*
X167882896Y-86563255D01*
X167882894Y-86563254D01*
X167824904Y-86546406D01*
X167766018Y-86508799D01*
X167736813Y-86445326D01*
X167735500Y-86427330D01*
X167735500Y-85170212D01*
X167755185Y-85103173D01*
X167807989Y-85057418D01*
X167820483Y-85052510D01*
X167949334Y-85009814D01*
X168098656Y-84917712D01*
X168222712Y-84793656D01*
X168314814Y-84644334D01*
X168369999Y-84477797D01*
X168380500Y-84375009D01*
X168380499Y-83649992D01*
X168380058Y-83645679D01*
X168369999Y-83547203D01*
X168369998Y-83547200D01*
X168350444Y-83488190D01*
X168314814Y-83380666D01*
X168222712Y-83231344D01*
X168098656Y-83107288D01*
X167949334Y-83015186D01*
X167782797Y-82960001D01*
X167782795Y-82960000D01*
X167680010Y-82949500D01*
X166329998Y-82949500D01*
X166329981Y-82949501D01*
X166227203Y-82960000D01*
X166227200Y-82960001D01*
X166060668Y-83015185D01*
X166060663Y-83015187D01*
X165911342Y-83107289D01*
X165787289Y-83231342D01*
X165695187Y-83380663D01*
X165695185Y-83380668D01*
X165670484Y-83455212D01*
X165640001Y-83547203D01*
X165640001Y-83547204D01*
X165640000Y-83547204D01*
X165629500Y-83649983D01*
X165629500Y-84375001D01*
X165629501Y-84375019D01*
X165640000Y-84477796D01*
X165640001Y-84477799D01*
X165677440Y-84590781D01*
X165695186Y-84644334D01*
X165787288Y-84793656D01*
X165911344Y-84917712D01*
X166060666Y-85009814D01*
X166227203Y-85064999D01*
X166227213Y-85065000D01*
X166233827Y-85066417D01*
X166233326Y-85068753D01*
X166287791Y-85090973D01*
X166327944Y-85148153D01*
X166334500Y-85187938D01*
X166334500Y-86427330D01*
X166314815Y-86494369D01*
X166262011Y-86540124D01*
X166245096Y-86546406D01*
X166187105Y-86563254D01*
X166187103Y-86563255D01*
X166045637Y-86646917D01*
X166045629Y-86646923D01*
X165929423Y-86763129D01*
X165929419Y-86763135D01*
X165845755Y-86904603D01*
X165845754Y-86904606D01*
X165799902Y-87062426D01*
X165799901Y-87062432D01*
X165797000Y-87099298D01*
X165797000Y-87530701D01*
X165799901Y-87567567D01*
X165799902Y-87567573D01*
X165845754Y-87725393D01*
X165845755Y-87725396D01*
X165845756Y-87725398D01*
X165851024Y-87734306D01*
X165929417Y-87866862D01*
X165929423Y-87866870D01*
X166045629Y-87983076D01*
X166045633Y-87983079D01*
X166045635Y-87983081D01*
X166187102Y-88066744D01*
X166187109Y-88066746D01*
X166344926Y-88112597D01*
X166344929Y-88112597D01*
X166344931Y-88112598D01*
X166381806Y-88115500D01*
X167548000Y-88115500D01*
X167556685Y-88118050D01*
X167565647Y-88116762D01*
X167589687Y-88127740D01*
X167615039Y-88135185D01*
X167620966Y-88142025D01*
X167629203Y-88145787D01*
X167643492Y-88168021D01*
X167660794Y-88187989D01*
X167663081Y-88198503D01*
X167666977Y-88204565D01*
X167672000Y-88239500D01*
X167672000Y-88291000D01*
X167652315Y-88358039D01*
X167599511Y-88403794D01*
X167548000Y-88415000D01*
X167285000Y-88415000D01*
X167285000Y-88965000D01*
X167940685Y-88965000D01*
X168003806Y-88982268D01*
X168062102Y-89016744D01*
X168088464Y-89024403D01*
X168219926Y-89062597D01*
X168219929Y-89062597D01*
X168219931Y-89062598D01*
X168256806Y-89065500D01*
X168256814Y-89065500D01*
X169563186Y-89065500D01*
X169563194Y-89065500D01*
X169600069Y-89062598D01*
X169600071Y-89062597D01*
X169600073Y-89062597D01*
X169656676Y-89046152D01*
X169757898Y-89016744D01*
X169899365Y-88933081D01*
X170015581Y-88816865D01*
X170099244Y-88675398D01*
X170144925Y-88518166D01*
X170145097Y-88517573D01*
X170145098Y-88517567D01*
X170147283Y-88489801D01*
X170148000Y-88480694D01*
X170148000Y-88049306D01*
X170145098Y-88012431D01*
X170136571Y-87983082D01*
X170099245Y-87854606D01*
X170099244Y-87854603D01*
X170099244Y-87854602D01*
X170015581Y-87713135D01*
X170015579Y-87713133D01*
X170015576Y-87713129D01*
X170004232Y-87701785D01*
X169970747Y-87640462D01*
X169975731Y-87570770D01*
X170004230Y-87526426D01*
X170974114Y-86556543D01*
X171050775Y-86441811D01*
X171053893Y-86434285D01*
X171096292Y-86331923D01*
X171103580Y-86314328D01*
X171118973Y-86236944D01*
X171130500Y-86178996D01*
X171130500Y-85791667D01*
X171150185Y-85724628D01*
X171189405Y-85686127D01*
X171211156Y-85672712D01*
X171335212Y-85548656D01*
X171427314Y-85399334D01*
X171482499Y-85232797D01*
X171493000Y-85130009D01*
X171492999Y-83779992D01*
X171490500Y-83755533D01*
X171482499Y-83677203D01*
X171482498Y-83677200D01*
X171462111Y-83615677D01*
X171427314Y-83510666D01*
X171335212Y-83361344D01*
X171211156Y-83237288D01*
X171189400Y-83223868D01*
X171142677Y-83171918D01*
X171130500Y-83118331D01*
X171130500Y-82641519D01*
X171150185Y-82574480D01*
X171166819Y-82553838D01*
X173603838Y-80116819D01*
X173665161Y-80083334D01*
X173691519Y-80080500D01*
X174956531Y-80080500D01*
X175019651Y-80097767D01*
X175077102Y-80131744D01*
X175103464Y-80139403D01*
X175234926Y-80177597D01*
X175234929Y-80177597D01*
X175234931Y-80177598D01*
X175271806Y-80180500D01*
X176438000Y-80180500D01*
X176446685Y-80183050D01*
X176455647Y-80181762D01*
X176479687Y-80192740D01*
X176505039Y-80200185D01*
X176510966Y-80207025D01*
X176519203Y-80210787D01*
X176533492Y-80233021D01*
X176550794Y-80252989D01*
X176553081Y-80263503D01*
X176556977Y-80269565D01*
X176562000Y-80304500D01*
X176562000Y-80355500D01*
X176542315Y-80422539D01*
X176489511Y-80468294D01*
X176438000Y-80479500D01*
X175271798Y-80479500D01*
X175234932Y-80482401D01*
X175234926Y-80482402D01*
X175077106Y-80528254D01*
X175077103Y-80528255D01*
X174935637Y-80611917D01*
X174935629Y-80611923D01*
X174819423Y-80728129D01*
X174819417Y-80728137D01*
X174735755Y-80869603D01*
X174735754Y-80869606D01*
X174689902Y-81027426D01*
X174689901Y-81027432D01*
X174687000Y-81064298D01*
X174687000Y-81495701D01*
X174689901Y-81532567D01*
X174689902Y-81532573D01*
X174735754Y-81690393D01*
X174735755Y-81690396D01*
X174735756Y-81690398D01*
X174752867Y-81719331D01*
X174819417Y-81831862D01*
X174819423Y-81831870D01*
X174935629Y-81948076D01*
X174935633Y-81948079D01*
X174935635Y-81948081D01*
X174944935Y-81953581D01*
X175066518Y-82025485D01*
X175077102Y-82031744D01*
X175135095Y-82048592D01*
X175193980Y-82086197D01*
X175223187Y-82149669D01*
X175224500Y-82167668D01*
X175224500Y-83630500D01*
X175204815Y-83697539D01*
X175152011Y-83743294D01*
X175100500Y-83754500D01*
X174522654Y-83754500D01*
X174455615Y-83734815D01*
X174409860Y-83682011D01*
X174404948Y-83669504D01*
X174386224Y-83612999D01*
X174352314Y-83510666D01*
X174260212Y-83361344D01*
X174136156Y-83237288D01*
X174030174Y-83171918D01*
X173986836Y-83145187D01*
X173986831Y-83145185D01*
X173955536Y-83134815D01*
X173820297Y-83090001D01*
X173820295Y-83090000D01*
X173717510Y-83079500D01*
X172992498Y-83079500D01*
X172992480Y-83079501D01*
X172889703Y-83090000D01*
X172889700Y-83090001D01*
X172723168Y-83145185D01*
X172723163Y-83145187D01*
X172573842Y-83237289D01*
X172449789Y-83361342D01*
X172357687Y-83510663D01*
X172357685Y-83510668D01*
X172345580Y-83547200D01*
X172302501Y-83677203D01*
X172302501Y-83677204D01*
X172302500Y-83677204D01*
X172292000Y-83779983D01*
X172292000Y-85130001D01*
X172292001Y-85130018D01*
X172302500Y-85232796D01*
X172302501Y-85232799D01*
X172357685Y-85399331D01*
X172357687Y-85399336D01*
X172370720Y-85420466D01*
X172449788Y-85548656D01*
X172573844Y-85672712D01*
X172723166Y-85764814D01*
X172889703Y-85819999D01*
X172992491Y-85830500D01*
X173717508Y-85830499D01*
X173717516Y-85830498D01*
X173717519Y-85830498D01*
X173773802Y-85824748D01*
X173820297Y-85819999D01*
X173986834Y-85764814D01*
X174136156Y-85672712D01*
X174260212Y-85548656D01*
X174352314Y-85399334D01*
X174404948Y-85240493D01*
X174444719Y-85183051D01*
X174509235Y-85156228D01*
X174522653Y-85155500D01*
X175826006Y-85155500D01*
X175826007Y-85155500D01*
X176003256Y-85155500D01*
X176070295Y-85175185D01*
X176103575Y-85206616D01*
X176173030Y-85302215D01*
X176317786Y-85446971D01*
X176441074Y-85536543D01*
X176483390Y-85567287D01*
X176590951Y-85622092D01*
X176665776Y-85660218D01*
X176665778Y-85660218D01*
X176665781Y-85660220D01*
X176770137Y-85694127D01*
X176860465Y-85723477D01*
X176961557Y-85739488D01*
X177062648Y-85755500D01*
X177062649Y-85755500D01*
X177267351Y-85755500D01*
X177267352Y-85755500D01*
X177469534Y-85723477D01*
X177664219Y-85660220D01*
X177846610Y-85567287D01*
X177939590Y-85499732D01*
X178012213Y-85446971D01*
X178012215Y-85446968D01*
X178012219Y-85446966D01*
X178156966Y-85302219D01*
X178156968Y-85302215D01*
X178156971Y-85302213D01*
X178245118Y-85180887D01*
X178277287Y-85136610D01*
X178370220Y-84954219D01*
X178433477Y-84759534D01*
X178465500Y-84557352D01*
X178465500Y-84352648D01*
X178448099Y-84242786D01*
X178433477Y-84150465D01*
X178394951Y-84031894D01*
X178370220Y-83955781D01*
X178370218Y-83955778D01*
X178370218Y-83955776D01*
X178334043Y-83884780D01*
X178277287Y-83773390D01*
X178249261Y-83734815D01*
X178156971Y-83607786D01*
X178012213Y-83463028D01*
X177846613Y-83342715D01*
X177846612Y-83342714D01*
X177846610Y-83342713D01*
X177749626Y-83293297D01*
X177664223Y-83249781D01*
X177469534Y-83186522D01*
X177294995Y-83158878D01*
X177267352Y-83154500D01*
X177062648Y-83154500D01*
X176995254Y-83165174D01*
X176860464Y-83186523D01*
X176860461Y-83186523D01*
X176787818Y-83210127D01*
X176717977Y-83212122D01*
X176658144Y-83176042D01*
X176627316Y-83113341D01*
X176625500Y-83092196D01*
X176625500Y-82167668D01*
X176645185Y-82100629D01*
X176697989Y-82054874D01*
X176714895Y-82048595D01*
X176772898Y-82031744D01*
X176914365Y-81948081D01*
X177030581Y-81831865D01*
X177114244Y-81690398D01*
X177160098Y-81532569D01*
X177163000Y-81495694D01*
X177163000Y-81254500D01*
X177182685Y-81187461D01*
X177235489Y-81141706D01*
X177287000Y-81130500D01*
X178453186Y-81130500D01*
X178453194Y-81130500D01*
X178490069Y-81127598D01*
X178490071Y-81127597D01*
X178490073Y-81127597D01*
X178531691Y-81115505D01*
X178647898Y-81081744D01*
X178705348Y-81047767D01*
X178768469Y-81030500D01*
X179048481Y-81030500D01*
X179115520Y-81050185D01*
X179136162Y-81066819D01*
X179603181Y-81533838D01*
X179636666Y-81595161D01*
X179639500Y-81621519D01*
X179639500Y-86653481D01*
X179619815Y-86720520D01*
X179603181Y-86741162D01*
X178816162Y-87528181D01*
X178754839Y-87561666D01*
X178728481Y-87564500D01*
X178435969Y-87564500D01*
X178372848Y-87547232D01*
X178359946Y-87539602D01*
X178315398Y-87513256D01*
X178315397Y-87513255D01*
X178315396Y-87513255D01*
X178315393Y-87513254D01*
X178157573Y-87467402D01*
X178157567Y-87467401D01*
X178120701Y-87464500D01*
X178120694Y-87464500D01*
X176954500Y-87464500D01*
X176887461Y-87444815D01*
X176841706Y-87392011D01*
X176830500Y-87340500D01*
X176830500Y-87099313D01*
X176830499Y-87099298D01*
X176829151Y-87082173D01*
X176827598Y-87062431D01*
X176816868Y-87025500D01*
X176787250Y-86923555D01*
X176781744Y-86904602D01*
X176698081Y-86763135D01*
X176698076Y-86763129D01*
X176581870Y-86646923D01*
X176581862Y-86646917D01*
X176503681Y-86600681D01*
X176440398Y-86563256D01*
X176440397Y-86563255D01*
X176440396Y-86563255D01*
X176440393Y-86563254D01*
X176282573Y-86517402D01*
X176282567Y-86517401D01*
X176245701Y-86514500D01*
X176245694Y-86514500D01*
X174939306Y-86514500D01*
X174939298Y-86514500D01*
X174902432Y-86517401D01*
X174902426Y-86517402D01*
X174744606Y-86563254D01*
X174744603Y-86563255D01*
X174687152Y-86597232D01*
X174624031Y-86614500D01*
X174236003Y-86614500D01*
X174135192Y-86634552D01*
X174135183Y-86634554D01*
X174127591Y-86636065D01*
X174100671Y-86641420D01*
X174048117Y-86663189D01*
X174044036Y-86664879D01*
X174044019Y-86664885D01*
X173973191Y-86694223D01*
X173870059Y-86763135D01*
X173870055Y-86763138D01*
X173858457Y-86770886D01*
X172175888Y-88453453D01*
X172175887Y-88453454D01*
X172099222Y-88568192D01*
X172046421Y-88695667D01*
X172046418Y-88695679D01*
X172022050Y-88818186D01*
X172022049Y-88818191D01*
X172019500Y-88831002D01*
X172019500Y-92643331D01*
X171999815Y-92710370D01*
X171960600Y-92748868D01*
X171938843Y-92762288D01*
X171814789Y-92886342D01*
X171722687Y-93035663D01*
X171722685Y-93035668D01*
X171712644Y-93065971D01*
X171667501Y-93202203D01*
X171667501Y-93202204D01*
X171667500Y-93202204D01*
X171657000Y-93304983D01*
X171657000Y-94655001D01*
X171657001Y-94655018D01*
X171667500Y-94757796D01*
X171667501Y-94757799D01*
X171722685Y-94924331D01*
X171722687Y-94924336D01*
X171736547Y-94946807D01*
X171814788Y-95073656D01*
X171938844Y-95197712D01*
X172088166Y-95289814D01*
X172254703Y-95344999D01*
X172357491Y-95355500D01*
X173082508Y-95355499D01*
X173082516Y-95355498D01*
X173082519Y-95355498D01*
X173138802Y-95349748D01*
X173185297Y-95344999D01*
X173351834Y-95289814D01*
X173501156Y-95197712D01*
X173625212Y-95073656D01*
X173717314Y-94924334D01*
X173772499Y-94757797D01*
X173783000Y-94655009D01*
X173782999Y-93304992D01*
X173781395Y-93289294D01*
X173772499Y-93202203D01*
X173772498Y-93202200D01*
X173717314Y-93035666D01*
X173625212Y-92886344D01*
X173501156Y-92762288D01*
X173479400Y-92748868D01*
X173432677Y-92696918D01*
X173420500Y-92643331D01*
X173420500Y-89241518D01*
X173440185Y-89174479D01*
X173456819Y-89153837D01*
X173992580Y-88618076D01*
X174550482Y-88060173D01*
X174611803Y-88026690D01*
X174681495Y-88031674D01*
X174701271Y-88041118D01*
X174744602Y-88066744D01*
X174744605Y-88066744D01*
X174744607Y-88066746D01*
X174902426Y-88112597D01*
X174902429Y-88112597D01*
X174902431Y-88112598D01*
X174939306Y-88115500D01*
X176105500Y-88115500D01*
X176114185Y-88118050D01*
X176123147Y-88116762D01*
X176147187Y-88127740D01*
X176172539Y-88135185D01*
X176178466Y-88142025D01*
X176186703Y-88145787D01*
X176200992Y-88168021D01*
X176218294Y-88187989D01*
X176220581Y-88198503D01*
X176224477Y-88204565D01*
X176229500Y-88239500D01*
X176229500Y-88290500D01*
X176209815Y-88357539D01*
X176157011Y-88403294D01*
X176105500Y-88414500D01*
X174939298Y-88414500D01*
X174902432Y-88417401D01*
X174902426Y-88417402D01*
X174744606Y-88463254D01*
X174744603Y-88463255D01*
X174603137Y-88546917D01*
X174603129Y-88546923D01*
X174486923Y-88663129D01*
X174486917Y-88663137D01*
X174403255Y-88804603D01*
X174403254Y-88804606D01*
X174357402Y-88962426D01*
X174357401Y-88962432D01*
X174354500Y-88999298D01*
X174354500Y-89430701D01*
X174357401Y-89467567D01*
X174357402Y-89467573D01*
X174403254Y-89625393D01*
X174403255Y-89625396D01*
X174486917Y-89766862D01*
X174486923Y-89766870D01*
X174603129Y-89883076D01*
X174603133Y-89883079D01*
X174603135Y-89883081D01*
X174603137Y-89883082D01*
X174743820Y-89966282D01*
X174744602Y-89966744D01*
X174802595Y-89983592D01*
X174861480Y-90021197D01*
X174890687Y-90084669D01*
X174892000Y-90102668D01*
X174892000Y-96480980D01*
X174872315Y-96548019D01*
X174855681Y-96568661D01*
X173914522Y-97509819D01*
X173853199Y-97543304D01*
X173783507Y-97538320D01*
X173727574Y-97496448D01*
X173721614Y-97486498D01*
X173721105Y-97486813D01*
X173717312Y-97480663D01*
X173625212Y-97331344D01*
X173501156Y-97207288D01*
X173351834Y-97115186D01*
X173185297Y-97060001D01*
X173185295Y-97060000D01*
X173082510Y-97049500D01*
X172357498Y-97049500D01*
X172357480Y-97049501D01*
X172254703Y-97060000D01*
X172254700Y-97060001D01*
X172088168Y-97115185D01*
X172088163Y-97115187D01*
X171938842Y-97207289D01*
X171814789Y-97331342D01*
X171722687Y-97480663D01*
X171722685Y-97480668D01*
X171712309Y-97511981D01*
X171667501Y-97647203D01*
X171667501Y-97647204D01*
X171667500Y-97647204D01*
X171657000Y-97749983D01*
X171657000Y-99100001D01*
X171657001Y-99100018D01*
X171667500Y-99202796D01*
X171667501Y-99202799D01*
X171670052Y-99210496D01*
X171722686Y-99369334D01*
X171814788Y-99518656D01*
X171938844Y-99642712D01*
X171960594Y-99656127D01*
X172007320Y-99708073D01*
X172019500Y-99761667D01*
X172019500Y-101128455D01*
X171999815Y-101195494D01*
X171947011Y-101241249D01*
X171942957Y-101243014D01*
X171921957Y-101251713D01*
X171921940Y-101251721D01*
X171717545Y-101369730D01*
X171530302Y-101513406D01*
X171530295Y-101513412D01*
X171363412Y-101680295D01*
X171363406Y-101680302D01*
X171219730Y-101867545D01*
X171101719Y-102071943D01*
X171101714Y-102071954D01*
X171011394Y-102290006D01*
X170950306Y-102517989D01*
X170919501Y-102751979D01*
X170919500Y-102751995D01*
X170919500Y-102988004D01*
X170919501Y-102988020D01*
X170950306Y-103222010D01*
X171011394Y-103449993D01*
X171101714Y-103668045D01*
X171101719Y-103668056D01*
X171172677Y-103790957D01*
X171219727Y-103872450D01*
X171219729Y-103872453D01*
X171219730Y-103872454D01*
X171363406Y-104059697D01*
X171363412Y-104059704D01*
X171530295Y-104226587D01*
X171530301Y-104226592D01*
X171717550Y-104370273D01*
X171848918Y-104446118D01*
X171921943Y-104488280D01*
X171921948Y-104488282D01*
X171921951Y-104488284D01*
X172140007Y-104578606D01*
X172367986Y-104639693D01*
X172601989Y-104670500D01*
X172601996Y-104670500D01*
X172838004Y-104670500D01*
X172838011Y-104670500D01*
X173072014Y-104639693D01*
X173299993Y-104578606D01*
X173518049Y-104488284D01*
X173722450Y-104370273D01*
X173909699Y-104226592D01*
X174076592Y-104059699D01*
X174220273Y-103872450D01*
X174338284Y-103668049D01*
X174428606Y-103449993D01*
X174489693Y-103222014D01*
X174520500Y-102988011D01*
X174520500Y-102751989D01*
X174489693Y-102517986D01*
X174428606Y-102290007D01*
X174338284Y-102071951D01*
X174338282Y-102071948D01*
X174338280Y-102071943D01*
X174257374Y-101931811D01*
X174220273Y-101867550D01*
X174076592Y-101680301D01*
X174076587Y-101680295D01*
X173909704Y-101513412D01*
X173909697Y-101513406D01*
X173722454Y-101369730D01*
X173722453Y-101369729D01*
X173722450Y-101369727D01*
X173618728Y-101309843D01*
X173518059Y-101251721D01*
X173518051Y-101251717D01*
X173518049Y-101251716D01*
X173518042Y-101251713D01*
X173497043Y-101243014D01*
X173442641Y-101199172D01*
X173420579Y-101132877D01*
X173420500Y-101128455D01*
X173420500Y-99761667D01*
X173440185Y-99694628D01*
X173479405Y-99656127D01*
X173501156Y-99642712D01*
X173625212Y-99518656D01*
X173717314Y-99369334D01*
X173769948Y-99210493D01*
X173809719Y-99153051D01*
X173874235Y-99126228D01*
X173887653Y-99125500D01*
X174058996Y-99125500D01*
X174153959Y-99106610D01*
X174194328Y-99098580D01*
X174258069Y-99072177D01*
X174321807Y-99045777D01*
X174321808Y-99045776D01*
X174321811Y-99045775D01*
X174436543Y-98969114D01*
X176136614Y-97269043D01*
X176213275Y-97154311D01*
X176255385Y-97052648D01*
X179039500Y-97052648D01*
X179039500Y-97257351D01*
X179071522Y-97459534D01*
X179134781Y-97654223D01*
X179183597Y-97750028D01*
X179223620Y-97828578D01*
X179227715Y-97836613D01*
X179348028Y-98002213D01*
X179492786Y-98146971D01*
X179647749Y-98259556D01*
X179658390Y-98267287D01*
X179767042Y-98322648D01*
X179840776Y-98360218D01*
X179840778Y-98360218D01*
X179840781Y-98360220D01*
X179945137Y-98394127D01*
X180035465Y-98423477D01*
X180136557Y-98439488D01*
X180237648Y-98455500D01*
X180237649Y-98455500D01*
X180442351Y-98455500D01*
X180442352Y-98455500D01*
X180644534Y-98423477D01*
X180839219Y-98360220D01*
X181021610Y-98267287D01*
X181114590Y-98199732D01*
X181187213Y-98146971D01*
X181187215Y-98146968D01*
X181187219Y-98146966D01*
X181331966Y-98002219D01*
X181401425Y-97906615D01*
X181456755Y-97863949D01*
X181501744Y-97855500D01*
X182313996Y-97855500D01*
X182408959Y-97836610D01*
X182449328Y-97828580D01*
X182513913Y-97801828D01*
X182576807Y-97775777D01*
X182576808Y-97775776D01*
X182576811Y-97775775D01*
X182691543Y-97699114D01*
X185329113Y-95061543D01*
X185337109Y-95049576D01*
X185344993Y-95037779D01*
X185382917Y-94981021D01*
X185405775Y-94946811D01*
X185408321Y-94940666D01*
X185444553Y-94853193D01*
X185444553Y-94853190D01*
X185447576Y-94845894D01*
X185458580Y-94819329D01*
X185470819Y-94757797D01*
X185485500Y-94683993D01*
X185485500Y-93242654D01*
X185505185Y-93175615D01*
X185557989Y-93129860D01*
X185570496Y-93124948D01*
X185597179Y-93116105D01*
X185729334Y-93072314D01*
X185878656Y-92980212D01*
X186002712Y-92856156D01*
X186094814Y-92706834D01*
X186149999Y-92540297D01*
X186160500Y-92437509D01*
X186160499Y-91712492D01*
X186154656Y-91655297D01*
X186149999Y-91609703D01*
X186149998Y-91609700D01*
X186094814Y-91443166D01*
X186002712Y-91293844D01*
X185878656Y-91169788D01*
X185729334Y-91077686D01*
X185562797Y-91022501D01*
X185562795Y-91022500D01*
X185460010Y-91012000D01*
X184109998Y-91012000D01*
X184109981Y-91012001D01*
X184007203Y-91022500D01*
X184007200Y-91022501D01*
X183840668Y-91077685D01*
X183840663Y-91077687D01*
X183691342Y-91169789D01*
X183567289Y-91293842D01*
X183475187Y-91443163D01*
X183475185Y-91443168D01*
X183451731Y-91513949D01*
X183420001Y-91609703D01*
X183420001Y-91609704D01*
X183420000Y-91609704D01*
X183409500Y-91712483D01*
X183409500Y-92437501D01*
X183409501Y-92437519D01*
X183420000Y-92540296D01*
X183420001Y-92540299D01*
X183475185Y-92706831D01*
X183475187Y-92706836D01*
X183500934Y-92748578D01*
X183567288Y-92856156D01*
X183691344Y-92980212D01*
X183840666Y-93072314D01*
X183962580Y-93112712D01*
X183999504Y-93124948D01*
X184056949Y-93164721D01*
X184083772Y-93229237D01*
X184084500Y-93242654D01*
X184084500Y-94273481D01*
X184064815Y-94340520D01*
X184048181Y-94361162D01*
X181991162Y-96418181D01*
X181929839Y-96451666D01*
X181903481Y-96454500D01*
X181501744Y-96454500D01*
X181434705Y-96434815D01*
X181401425Y-96403384D01*
X181331969Y-96307784D01*
X181187213Y-96163028D01*
X181021613Y-96042715D01*
X181021612Y-96042714D01*
X181021610Y-96042713D01*
X180964653Y-96013691D01*
X180839223Y-95949781D01*
X180644534Y-95886522D01*
X180469995Y-95858878D01*
X180442352Y-95854500D01*
X180237648Y-95854500D01*
X180213329Y-95858351D01*
X180035465Y-95886522D01*
X179840776Y-95949781D01*
X179658386Y-96042715D01*
X179492786Y-96163028D01*
X179348028Y-96307786D01*
X179227715Y-96473386D01*
X179134781Y-96655776D01*
X179071522Y-96850465D01*
X179039500Y-97052648D01*
X176255385Y-97052648D01*
X176266080Y-97026829D01*
X176266082Y-97026820D01*
X176266727Y-97023579D01*
X176267240Y-97020999D01*
X176271956Y-96997287D01*
X176276046Y-96976725D01*
X176293000Y-96891493D01*
X176293000Y-90102668D01*
X176312685Y-90035629D01*
X176365489Y-89989874D01*
X176382395Y-89983595D01*
X176440398Y-89966744D01*
X176581865Y-89883081D01*
X176698081Y-89766865D01*
X176781744Y-89625398D01*
X176827598Y-89467569D01*
X176830500Y-89430694D01*
X176830500Y-89189500D01*
X176850185Y-89122461D01*
X176902989Y-89076706D01*
X176954500Y-89065500D01*
X178120686Y-89065500D01*
X178120694Y-89065500D01*
X178157569Y-89062598D01*
X178157571Y-89062597D01*
X178157573Y-89062597D01*
X178214176Y-89046152D01*
X178315398Y-89016744D01*
X178372848Y-88982767D01*
X178435969Y-88965500D01*
X179138996Y-88965500D01*
X179268134Y-88939812D01*
X179274328Y-88938580D01*
X179358285Y-88903804D01*
X179401807Y-88885777D01*
X179401808Y-88885776D01*
X179401811Y-88885775D01*
X179516543Y-88809114D01*
X180884114Y-87441543D01*
X180960775Y-87326811D01*
X181013580Y-87199329D01*
X181027407Y-87129815D01*
X181028728Y-87123175D01*
X181028728Y-87123172D01*
X181040500Y-87063993D01*
X181040500Y-81621519D01*
X181049144Y-81592078D01*
X181055668Y-81562092D01*
X181059422Y-81557076D01*
X181060185Y-81554480D01*
X181076819Y-81533838D01*
X181228838Y-81381819D01*
X181290161Y-81348334D01*
X181316519Y-81345500D01*
X188028996Y-81345500D01*
X188123959Y-81326610D01*
X188164328Y-81318580D01*
X188228069Y-81292177D01*
X188291807Y-81265777D01*
X188291808Y-81265776D01*
X188291811Y-81265775D01*
X188406543Y-81189114D01*
X189139114Y-80456543D01*
X189161139Y-80423578D01*
X189192622Y-80391242D01*
X189199950Y-80386056D01*
X189211096Y-80380378D01*
X189327286Y-80295960D01*
X189327871Y-80295547D01*
X189360202Y-80284466D01*
X189392412Y-80272974D01*
X189393201Y-80273157D01*
X189393967Y-80272895D01*
X189427166Y-80281055D01*
X189460466Y-80288799D01*
X189461163Y-80289412D01*
X189461817Y-80289573D01*
X189464165Y-80292051D01*
X189498758Y-80322460D01*
X189562455Y-80407547D01*
X189677664Y-80493793D01*
X189677671Y-80493797D01*
X189812517Y-80544091D01*
X189812516Y-80544091D01*
X189819444Y-80544835D01*
X189872127Y-80550500D01*
X191317872Y-80550499D01*
X191377483Y-80544091D01*
X191512331Y-80493796D01*
X191627546Y-80407546D01*
X191713796Y-80292331D01*
X191764091Y-80157483D01*
X191764090Y-80157483D01*
X191764582Y-80156167D01*
X191806453Y-80100233D01*
X191871917Y-80075816D01*
X191880764Y-80075500D01*
X193743996Y-80075500D01*
X193835040Y-80057389D01*
X193879328Y-80048580D01*
X193943069Y-80022177D01*
X194006807Y-79995777D01*
X194006808Y-79995776D01*
X194006811Y-79995775D01*
X194121543Y-79919114D01*
X195198838Y-78841819D01*
X195260161Y-78808334D01*
X195286519Y-78805500D01*
X196129481Y-78805500D01*
X196196520Y-78825185D01*
X196242275Y-78877989D01*
X196252219Y-78947147D01*
X196223194Y-79010703D01*
X196217162Y-79017181D01*
X191830888Y-83403453D01*
X191830887Y-83403454D01*
X191754222Y-83518192D01*
X191701421Y-83645667D01*
X191701418Y-83645679D01*
X191679567Y-83755533D01*
X191679567Y-83755536D01*
X191674500Y-83781006D01*
X191674500Y-86224012D01*
X191654815Y-86291051D01*
X191602011Y-86336806D01*
X191532853Y-86346750D01*
X191487379Y-86330744D01*
X191376211Y-86265000D01*
X191347898Y-86248256D01*
X191347897Y-86248255D01*
X191347896Y-86248255D01*
X191347893Y-86248254D01*
X191190073Y-86202402D01*
X191190067Y-86202401D01*
X191153201Y-86199500D01*
X191153194Y-86199500D01*
X189846806Y-86199500D01*
X189846798Y-86199500D01*
X189809932Y-86202401D01*
X189809926Y-86202402D01*
X189652106Y-86248254D01*
X189652103Y-86248255D01*
X189634068Y-86258921D01*
X189605234Y-86275974D01*
X189594652Y-86282232D01*
X189531531Y-86299500D01*
X186866005Y-86299500D01*
X186796677Y-86313290D01*
X186762012Y-86320186D01*
X186730671Y-86326420D01*
X186730670Y-86326420D01*
X186603190Y-86379224D01*
X186488454Y-86455887D01*
X184893660Y-88050681D01*
X184832337Y-88084166D01*
X184805979Y-88087000D01*
X184109998Y-88087000D01*
X184109980Y-88087001D01*
X184007203Y-88097500D01*
X184007200Y-88097501D01*
X183840668Y-88152685D01*
X183840663Y-88152687D01*
X183691342Y-88244789D01*
X183567289Y-88368842D01*
X183475187Y-88518163D01*
X183475185Y-88518168D01*
X183465659Y-88546917D01*
X183420001Y-88684703D01*
X183420001Y-88684704D01*
X183420000Y-88684704D01*
X183409500Y-88787483D01*
X183409500Y-89512501D01*
X183409501Y-89512519D01*
X183420000Y-89615296D01*
X183420001Y-89615299D01*
X183455840Y-89723453D01*
X183475186Y-89781834D01*
X183567288Y-89931156D01*
X183691344Y-90055212D01*
X183840666Y-90147314D01*
X184007203Y-90202499D01*
X184109991Y-90213000D01*
X185460008Y-90212999D01*
X185562797Y-90202499D01*
X185729334Y-90147314D01*
X185878656Y-90055212D01*
X186002712Y-89931156D01*
X186094814Y-89781834D01*
X186149999Y-89615297D01*
X186160500Y-89512509D01*
X186160499Y-89150001D01*
X189265204Y-89150001D01*
X189265399Y-89152486D01*
X189311218Y-89310198D01*
X189394814Y-89451552D01*
X189394821Y-89451561D01*
X189510938Y-89567678D01*
X189510947Y-89567685D01*
X189652303Y-89651282D01*
X189652306Y-89651283D01*
X189810004Y-89697099D01*
X189810010Y-89697100D01*
X189846850Y-89699999D01*
X189846866Y-89700000D01*
X190250000Y-89700000D01*
X190250000Y-89150000D01*
X189265205Y-89150000D01*
X189265204Y-89150001D01*
X186160499Y-89150001D01*
X186160499Y-88816517D01*
X186169143Y-88787077D01*
X186175667Y-88757091D01*
X186179421Y-88752075D01*
X186180184Y-88749479D01*
X186196813Y-88728842D01*
X186275657Y-88649998D01*
X189265204Y-88649998D01*
X189265205Y-88650000D01*
X190250000Y-88650000D01*
X190250000Y-88100000D01*
X189846850Y-88100000D01*
X189810010Y-88102899D01*
X189810004Y-88102900D01*
X189652306Y-88148716D01*
X189652303Y-88148717D01*
X189510947Y-88232314D01*
X189510938Y-88232321D01*
X189394821Y-88348438D01*
X189394814Y-88348447D01*
X189311218Y-88489801D01*
X189265399Y-88647513D01*
X189265204Y-88649998D01*
X186275657Y-88649998D01*
X187188838Y-87736819D01*
X187250161Y-87703334D01*
X187276519Y-87700500D01*
X189531531Y-87700500D01*
X189594651Y-87717767D01*
X189652102Y-87751744D01*
X189693724Y-87763836D01*
X189809926Y-87797597D01*
X189809929Y-87797597D01*
X189809931Y-87797598D01*
X189846806Y-87800500D01*
X191013000Y-87800500D01*
X191021685Y-87803050D01*
X191030647Y-87801762D01*
X191054687Y-87812740D01*
X191080039Y-87820185D01*
X191085966Y-87827025D01*
X191094203Y-87830787D01*
X191108492Y-87853021D01*
X191125794Y-87872989D01*
X191128081Y-87883503D01*
X191131977Y-87889565D01*
X191137000Y-87924500D01*
X191137000Y-87976000D01*
X191117315Y-88043039D01*
X191064511Y-88088794D01*
X191013000Y-88100000D01*
X190750000Y-88100000D01*
X190750000Y-89700000D01*
X191153134Y-89700000D01*
X191153149Y-89699999D01*
X191189989Y-89697100D01*
X191189995Y-89697099D01*
X191347693Y-89651283D01*
X191347696Y-89651282D01*
X191489052Y-89567685D01*
X191489061Y-89567678D01*
X191605178Y-89451561D01*
X191605187Y-89451550D01*
X191657857Y-89362489D01*
X191708925Y-89314805D01*
X191777667Y-89302301D01*
X191842257Y-89328946D01*
X191852270Y-89337928D01*
X192938181Y-90423838D01*
X192971666Y-90485161D01*
X192974500Y-90511519D01*
X192974500Y-91373331D01*
X192954815Y-91440370D01*
X192915600Y-91478868D01*
X192893843Y-91492288D01*
X192769789Y-91616342D01*
X192677687Y-91765663D01*
X192677685Y-91765668D01*
X192659075Y-91821831D01*
X192622501Y-91932203D01*
X192622501Y-91932204D01*
X192622500Y-91932204D01*
X192612000Y-92034983D01*
X192612000Y-93385001D01*
X192612001Y-93385018D01*
X192622500Y-93487796D01*
X192622501Y-93487799D01*
X192677685Y-93654331D01*
X192677687Y-93654336D01*
X192690720Y-93675466D01*
X192769788Y-93803656D01*
X192893844Y-93927712D01*
X193043166Y-94019814D01*
X193209703Y-94074999D01*
X193312491Y-94085500D01*
X194037508Y-94085499D01*
X194037516Y-94085498D01*
X194037519Y-94085498D01*
X194093802Y-94079748D01*
X194140297Y-94074999D01*
X194306834Y-94019814D01*
X194456156Y-93927712D01*
X194580212Y-93803656D01*
X194672314Y-93654334D01*
X194727499Y-93487797D01*
X194738000Y-93385009D01*
X194737999Y-92034992D01*
X194727499Y-91932203D01*
X194672314Y-91765666D01*
X194580212Y-91616344D01*
X194456156Y-91492288D01*
X194434400Y-91478868D01*
X194387677Y-91426918D01*
X194375500Y-91373331D01*
X194375500Y-90101005D01*
X194362215Y-90034221D01*
X194358491Y-90015500D01*
X194358391Y-90014999D01*
X194348793Y-89966744D01*
X194348580Y-89965672D01*
X194295775Y-89838189D01*
X194219114Y-89723457D01*
X194219112Y-89723454D01*
X194219111Y-89723453D01*
X193319914Y-88824257D01*
X193286429Y-88762934D01*
X193291413Y-88693243D01*
X193333285Y-88637309D01*
X193344476Y-88629843D01*
X193348406Y-88627519D01*
X193364365Y-88618081D01*
X193480581Y-88501865D01*
X193564244Y-88360398D01*
X193610098Y-88202569D01*
X193613000Y-88165694D01*
X193613000Y-87734306D01*
X193610098Y-87697431D01*
X193601571Y-87668082D01*
X193570654Y-87561666D01*
X193564244Y-87539602D01*
X193480581Y-87398135D01*
X193480579Y-87398133D01*
X193480576Y-87398129D01*
X193364370Y-87281923D01*
X193364362Y-87281917D01*
X193286181Y-87235681D01*
X193222898Y-87198256D01*
X193222897Y-87198255D01*
X193222896Y-87198255D01*
X193222894Y-87198254D01*
X193164904Y-87181406D01*
X193106018Y-87143799D01*
X193076813Y-87080326D01*
X193075500Y-87062330D01*
X193075500Y-85350032D01*
X193095185Y-85282993D01*
X193147989Y-85237238D01*
X193217147Y-85227294D01*
X193280703Y-85256319D01*
X193299820Y-85277149D01*
X193318032Y-85302217D01*
X193462786Y-85446971D01*
X193586074Y-85536543D01*
X193628390Y-85567287D01*
X193735951Y-85622092D01*
X193810776Y-85660218D01*
X193810778Y-85660218D01*
X193810781Y-85660220D01*
X193915137Y-85694127D01*
X194005465Y-85723477D01*
X194106557Y-85739488D01*
X194207648Y-85755500D01*
X194207649Y-85755500D01*
X194412351Y-85755500D01*
X194412352Y-85755500D01*
X194614534Y-85723477D01*
X194809219Y-85660220D01*
X194991610Y-85567287D01*
X195084590Y-85499732D01*
X195157213Y-85446971D01*
X195157215Y-85446968D01*
X195157219Y-85446966D01*
X195301966Y-85302219D01*
X195371425Y-85206615D01*
X195426755Y-85163949D01*
X195471744Y-85155500D01*
X195775500Y-85155500D01*
X195842539Y-85175185D01*
X195888294Y-85227989D01*
X195899500Y-85279500D01*
X195899500Y-91373331D01*
X195879815Y-91440370D01*
X195840600Y-91478868D01*
X195818843Y-91492288D01*
X195694789Y-91616342D01*
X195602687Y-91765663D01*
X195602685Y-91765668D01*
X195584075Y-91821831D01*
X195547501Y-91932203D01*
X195547501Y-91932204D01*
X195547500Y-91932204D01*
X195537000Y-92034983D01*
X195537000Y-93385001D01*
X195537001Y-93385018D01*
X195547500Y-93487796D01*
X195547501Y-93487799D01*
X195602685Y-93654331D01*
X195602687Y-93654336D01*
X195615720Y-93675466D01*
X195694788Y-93803656D01*
X195818844Y-93927712D01*
X195968166Y-94019814D01*
X196134703Y-94074999D01*
X196237491Y-94085500D01*
X196962508Y-94085499D01*
X196962516Y-94085498D01*
X196962519Y-94085498D01*
X197018802Y-94079748D01*
X197065297Y-94074999D01*
X197231834Y-94019814D01*
X197381156Y-93927712D01*
X197505212Y-93803656D01*
X197597314Y-93654334D01*
X197652499Y-93487797D01*
X197663000Y-93385009D01*
X197662999Y-92034992D01*
X197652499Y-91932203D01*
X197597314Y-91765666D01*
X197505212Y-91616344D01*
X197381156Y-91492288D01*
X197359400Y-91478868D01*
X197312677Y-91426918D01*
X197300500Y-91373331D01*
X197300500Y-85681519D01*
X197309144Y-85652078D01*
X197315668Y-85622092D01*
X197319422Y-85617076D01*
X197320185Y-85614480D01*
X197336819Y-85593838D01*
X199329112Y-83601545D01*
X199329114Y-83601543D01*
X199405775Y-83486811D01*
X199458580Y-83359329D01*
X199473655Y-83283541D01*
X199480163Y-83250826D01*
X199485500Y-83223995D01*
X199485500Y-81847668D01*
X199505185Y-81780629D01*
X199557989Y-81734874D01*
X199574895Y-81728595D01*
X199632898Y-81711744D01*
X199774365Y-81628081D01*
X199890581Y-81511865D01*
X199974244Y-81370398D01*
X200002378Y-81273561D01*
X200010411Y-81245912D01*
X200048017Y-81187026D01*
X200111489Y-81157820D01*
X200180676Y-81167566D01*
X200217168Y-81192826D01*
X200848454Y-81824112D01*
X200963192Y-81900777D01*
X201080230Y-81949255D01*
X201090672Y-81953580D01*
X201090676Y-81953580D01*
X201090677Y-81953581D01*
X201226003Y-81980500D01*
X201226006Y-81980500D01*
X201226007Y-81980500D01*
X203116944Y-81980500D01*
X203183983Y-82000185D01*
X203229738Y-82052989D01*
X203239682Y-82122147D01*
X203234875Y-82142818D01*
X203201523Y-82245461D01*
X203201523Y-82245464D01*
X203169500Y-82447648D01*
X203169500Y-82652351D01*
X203201522Y-82854534D01*
X203264781Y-83049223D01*
X203313678Y-83145187D01*
X203357577Y-83231344D01*
X203357715Y-83231613D01*
X203478028Y-83397213D01*
X203622786Y-83541971D01*
X203772751Y-83650925D01*
X203788390Y-83662287D01*
X203904607Y-83721503D01*
X203970776Y-83755218D01*
X203970778Y-83755218D01*
X203970781Y-83755220D01*
X204075137Y-83789127D01*
X204165465Y-83818477D01*
X204184697Y-83821523D01*
X204367648Y-83850500D01*
X204367649Y-83850500D01*
X204572351Y-83850500D01*
X204572352Y-83850500D01*
X204774534Y-83818477D01*
X204969219Y-83755220D01*
X205151610Y-83662287D01*
X205292944Y-83559603D01*
X205317213Y-83541971D01*
X205317215Y-83541968D01*
X205317219Y-83541966D01*
X205461966Y-83397219D01*
X205531425Y-83301615D01*
X205535757Y-83298274D01*
X205538031Y-83293297D01*
X205563130Y-83277166D01*
X205586755Y-83258949D01*
X205593428Y-83257695D01*
X205596809Y-83255523D01*
X205631744Y-83250500D01*
X205673332Y-83250500D01*
X205740371Y-83270185D01*
X205778870Y-83309403D01*
X205792285Y-83331152D01*
X205792288Y-83331156D01*
X205916344Y-83455212D01*
X206065666Y-83547314D01*
X206232203Y-83602499D01*
X206334991Y-83613000D01*
X207685008Y-83612999D01*
X207787797Y-83602499D01*
X207954334Y-83547314D01*
X208025404Y-83503477D01*
X208092796Y-83485038D01*
X208159459Y-83505961D01*
X208204229Y-83559603D01*
X208214500Y-83609017D01*
X208214500Y-84415982D01*
X208194815Y-84483021D01*
X208142011Y-84528776D01*
X208072853Y-84538720D01*
X208025404Y-84521521D01*
X207954517Y-84477799D01*
X207954334Y-84477686D01*
X207787797Y-84422501D01*
X207787795Y-84422500D01*
X207685010Y-84412000D01*
X206334998Y-84412000D01*
X206334981Y-84412001D01*
X206232203Y-84422500D01*
X206232200Y-84422501D01*
X206065668Y-84477685D01*
X206065663Y-84477687D01*
X205916342Y-84569789D01*
X205792288Y-84693843D01*
X205792285Y-84693847D01*
X205778870Y-84715597D01*
X205726922Y-84762322D01*
X205673332Y-84774500D01*
X200206004Y-84774500D01*
X200070677Y-84801418D01*
X200070667Y-84801421D01*
X199943192Y-84854222D01*
X199828454Y-84930887D01*
X198845887Y-85913454D01*
X198769224Y-86028190D01*
X198719458Y-86148337D01*
X198675617Y-86202740D01*
X198639493Y-86219960D01*
X198542104Y-86248254D01*
X198542103Y-86248255D01*
X198400637Y-86331917D01*
X198400629Y-86331923D01*
X198284423Y-86448129D01*
X198284417Y-86448137D01*
X198200755Y-86589603D01*
X198200754Y-86589606D01*
X198154902Y-86747426D01*
X198154901Y-86747432D01*
X198152000Y-86784298D01*
X198152000Y-87215701D01*
X198154901Y-87252567D01*
X198154902Y-87252573D01*
X198200754Y-87410393D01*
X198200755Y-87410396D01*
X198284417Y-87551862D01*
X198284423Y-87551870D01*
X198400629Y-87668076D01*
X198400633Y-87668079D01*
X198400635Y-87668081D01*
X198542102Y-87751744D01*
X198583724Y-87763836D01*
X198699926Y-87797597D01*
X198699929Y-87797597D01*
X198699931Y-87797598D01*
X198736806Y-87800500D01*
X199903000Y-87800500D01*
X199911685Y-87803050D01*
X199920647Y-87801762D01*
X199944687Y-87812740D01*
X199970039Y-87820185D01*
X199975966Y-87827025D01*
X199984203Y-87830787D01*
X199998492Y-87853021D01*
X200015794Y-87872989D01*
X200018081Y-87883503D01*
X200021977Y-87889565D01*
X200027000Y-87924500D01*
X200027000Y-87975500D01*
X200007315Y-88042539D01*
X199954511Y-88088294D01*
X199903000Y-88099500D01*
X198736798Y-88099500D01*
X198699932Y-88102401D01*
X198699926Y-88102402D01*
X198542106Y-88148254D01*
X198542103Y-88148255D01*
X198400637Y-88231917D01*
X198400629Y-88231923D01*
X198284423Y-88348129D01*
X198284417Y-88348137D01*
X198200755Y-88489603D01*
X198200754Y-88489606D01*
X198154902Y-88647426D01*
X198154901Y-88647432D01*
X198152000Y-88684298D01*
X198152000Y-89115701D01*
X198154901Y-89152567D01*
X198154902Y-89152573D01*
X198200754Y-89310393D01*
X198200755Y-89310396D01*
X198284417Y-89451862D01*
X198284423Y-89451870D01*
X198400629Y-89568076D01*
X198400633Y-89568079D01*
X198400635Y-89568081D01*
X198400637Y-89568082D01*
X198541320Y-89651282D01*
X198542102Y-89651744D01*
X198600095Y-89668592D01*
X198658980Y-89706197D01*
X198688187Y-89769669D01*
X198689500Y-89787668D01*
X198689500Y-101128455D01*
X198669815Y-101195494D01*
X198617011Y-101241249D01*
X198612957Y-101243014D01*
X198591957Y-101251713D01*
X198591940Y-101251721D01*
X198387545Y-101369730D01*
X198200302Y-101513406D01*
X198200295Y-101513412D01*
X198033412Y-101680295D01*
X198033406Y-101680302D01*
X197889730Y-101867545D01*
X197771717Y-102071948D01*
X197771708Y-102071965D01*
X197763015Y-102092954D01*
X197719174Y-102147357D01*
X197652879Y-102169421D01*
X197648455Y-102169500D01*
X196781004Y-102169500D01*
X196645677Y-102196418D01*
X196645667Y-102196421D01*
X196518192Y-102249222D01*
X196403454Y-102325887D01*
X196403453Y-102325888D01*
X193421162Y-105308181D01*
X193359839Y-105341666D01*
X193333481Y-105344500D01*
X152106519Y-105344500D01*
X152039480Y-105324815D01*
X152018838Y-105308181D01*
X144054319Y-97343662D01*
X144020834Y-97282339D01*
X144018000Y-97255981D01*
X144018000Y-96412605D01*
X144037685Y-96345566D01*
X144090489Y-96299811D01*
X144159647Y-96289867D01*
X144223203Y-96318892D01*
X144231450Y-96327363D01*
X144231578Y-96327236D01*
X144968454Y-97064112D01*
X145083192Y-97140777D01*
X145210667Y-97193578D01*
X145210672Y-97193580D01*
X145210676Y-97193580D01*
X145210677Y-97193581D01*
X145346003Y-97220500D01*
X145346006Y-97220500D01*
X146753996Y-97220500D01*
X146845040Y-97202389D01*
X146889328Y-97193580D01*
X146988601Y-97152460D01*
X147016807Y-97140777D01*
X147016808Y-97140776D01*
X147016811Y-97140775D01*
X147131543Y-97064114D01*
X147635671Y-96559986D01*
X150317501Y-96559986D01*
X150327994Y-96662697D01*
X150383141Y-96829119D01*
X150383143Y-96829124D01*
X150475184Y-96978345D01*
X150599154Y-97102315D01*
X150748375Y-97194356D01*
X150748380Y-97194358D01*
X150914802Y-97249505D01*
X150914809Y-97249506D01*
X151017519Y-97259999D01*
X151129999Y-97259999D01*
X151630000Y-97259999D01*
X151742472Y-97259999D01*
X151742486Y-97259998D01*
X151845197Y-97249505D01*
X152011619Y-97194358D01*
X152011624Y-97194356D01*
X152160845Y-97102315D01*
X152284815Y-96978345D01*
X152376856Y-96829124D01*
X152376858Y-96829119D01*
X152432005Y-96662697D01*
X152432006Y-96662690D01*
X152442499Y-96559986D01*
X152442500Y-96559973D01*
X152442500Y-96135000D01*
X151630000Y-96135000D01*
X151630000Y-97259999D01*
X151129999Y-97259999D01*
X151130000Y-97259998D01*
X151130000Y-96135000D01*
X150317501Y-96135000D01*
X150317501Y-96559986D01*
X147635671Y-96559986D01*
X147663314Y-96532343D01*
X148199701Y-95995957D01*
X148985645Y-95210013D01*
X150317500Y-95210013D01*
X150317500Y-95635000D01*
X151130000Y-95635000D01*
X151630000Y-95635000D01*
X152442499Y-95635000D01*
X152442499Y-95210028D01*
X152442498Y-95210013D01*
X152432005Y-95107302D01*
X152376858Y-94940880D01*
X152376856Y-94940875D01*
X152284815Y-94791654D01*
X152160845Y-94667684D01*
X152011624Y-94575643D01*
X152011619Y-94575641D01*
X151845197Y-94520494D01*
X151845190Y-94520493D01*
X151742486Y-94510000D01*
X151630000Y-94510000D01*
X151630000Y-95635000D01*
X151130000Y-95635000D01*
X151130000Y-94510000D01*
X151017527Y-94510000D01*
X151017512Y-94510001D01*
X150914802Y-94520494D01*
X150748380Y-94575641D01*
X150748375Y-94575643D01*
X150599154Y-94667684D01*
X150475184Y-94791654D01*
X150383143Y-94940875D01*
X150383141Y-94940880D01*
X150327994Y-95107302D01*
X150327993Y-95107309D01*
X150317500Y-95210013D01*
X148985645Y-95210013D01*
X149076475Y-95119183D01*
X149134111Y-95061546D01*
X149134112Y-95061545D01*
X149134114Y-95061543D01*
X149210775Y-94946811D01*
X149213321Y-94940666D01*
X149263578Y-94819332D01*
X149263580Y-94819328D01*
X149275819Y-94757799D01*
X149290500Y-94683996D01*
X149290500Y-92099019D01*
X149299144Y-92069578D01*
X149305668Y-92039592D01*
X149309422Y-92034576D01*
X149310185Y-92031980D01*
X149326819Y-92011338D01*
X149411338Y-91926819D01*
X149472661Y-91893334D01*
X149499019Y-91890500D01*
X151698332Y-91890500D01*
X151765371Y-91910185D01*
X151803870Y-91949403D01*
X151817285Y-91971152D01*
X151817288Y-91971156D01*
X151941344Y-92095212D01*
X152090666Y-92187314D01*
X152257203Y-92242499D01*
X152359991Y-92253000D01*
X153710008Y-92252999D01*
X153812797Y-92242499D01*
X153979334Y-92187314D01*
X154128656Y-92095212D01*
X154252712Y-91971156D01*
X154344814Y-91821834D01*
X154399999Y-91655297D01*
X154410500Y-91552509D01*
X154410499Y-90827492D01*
X154399999Y-90724703D01*
X154344814Y-90558166D01*
X154252712Y-90408844D01*
X154128656Y-90284788D01*
X154018121Y-90216610D01*
X153979336Y-90192687D01*
X153979331Y-90192685D01*
X153977862Y-90192198D01*
X153812797Y-90137501D01*
X153812795Y-90137500D01*
X153710010Y-90127000D01*
X152359998Y-90127000D01*
X152359981Y-90127001D01*
X152257203Y-90137500D01*
X152257200Y-90137501D01*
X152090668Y-90192685D01*
X152090663Y-90192687D01*
X151941342Y-90284789D01*
X151817288Y-90408843D01*
X151817285Y-90408847D01*
X151803870Y-90430597D01*
X151751922Y-90477322D01*
X151698332Y-90489500D01*
X149088503Y-90489500D01*
X148980090Y-90511065D01*
X148980089Y-90511065D01*
X148953171Y-90516420D01*
X148825690Y-90569224D01*
X148710954Y-90645887D01*
X148045887Y-91310954D01*
X147969222Y-91425692D01*
X147916421Y-91553167D01*
X147916420Y-91553171D01*
X147916420Y-91553172D01*
X147899837Y-91636542D01*
X147896107Y-91655295D01*
X147889500Y-91688506D01*
X147889500Y-94273480D01*
X147869815Y-94340519D01*
X147853181Y-94361161D01*
X147516681Y-94697661D01*
X147455358Y-94731146D01*
X147385666Y-94726162D01*
X147329733Y-94684290D01*
X147305316Y-94618826D01*
X147305000Y-94609980D01*
X147305000Y-94230000D01*
X146492500Y-94230000D01*
X146492500Y-95354999D01*
X146559982Y-95354999D01*
X146627021Y-95374684D01*
X146672776Y-95427488D01*
X146682720Y-95496646D01*
X146653695Y-95560202D01*
X146647663Y-95566680D01*
X146431162Y-95783181D01*
X146369839Y-95816666D01*
X146343481Y-95819500D01*
X145756519Y-95819500D01*
X145727078Y-95810855D01*
X145697092Y-95804332D01*
X145692076Y-95800577D01*
X145689480Y-95799815D01*
X145668838Y-95783181D01*
X145516819Y-95631162D01*
X145483334Y-95569839D01*
X145480500Y-95543481D01*
X145480500Y-95417874D01*
X145500185Y-95350835D01*
X145552989Y-95305080D01*
X145622147Y-95295136D01*
X145643504Y-95300168D01*
X145777302Y-95344505D01*
X145777309Y-95344506D01*
X145880019Y-95354999D01*
X145992499Y-95354999D01*
X145992500Y-95354998D01*
X145992500Y-93730000D01*
X146492500Y-93730000D01*
X147304999Y-93730000D01*
X147304999Y-93305028D01*
X147304998Y-93305013D01*
X147294505Y-93202302D01*
X147239358Y-93035880D01*
X147239356Y-93035875D01*
X147147315Y-92886654D01*
X147023345Y-92762684D01*
X146874124Y-92670643D01*
X146874119Y-92670641D01*
X146707697Y-92615494D01*
X146707690Y-92615493D01*
X146604986Y-92605000D01*
X146492500Y-92605000D01*
X146492500Y-93730000D01*
X145992500Y-93730000D01*
X145992500Y-92605000D01*
X145880027Y-92605000D01*
X145880012Y-92605001D01*
X145777302Y-92615494D01*
X145627329Y-92665190D01*
X145557500Y-92667592D01*
X145497458Y-92631860D01*
X145466708Y-92571676D01*
X145453580Y-92505672D01*
X145450313Y-92497784D01*
X145400777Y-92378192D01*
X145324112Y-92263454D01*
X144591545Y-91530887D01*
X144476807Y-91454222D01*
X144349332Y-91401421D01*
X144349322Y-91401418D01*
X144213996Y-91374500D01*
X144213994Y-91374500D01*
X144213993Y-91374500D01*
X142581519Y-91374500D01*
X142514480Y-91354815D01*
X142493838Y-91338181D01*
X141071819Y-89916162D01*
X141038334Y-89854839D01*
X141035500Y-89828481D01*
X141035500Y-89465001D01*
X145782704Y-89465001D01*
X145782899Y-89467486D01*
X145828718Y-89625198D01*
X145912314Y-89766552D01*
X145912321Y-89766561D01*
X146028438Y-89882678D01*
X146028447Y-89882685D01*
X146169803Y-89966282D01*
X146169806Y-89966283D01*
X146327504Y-90012099D01*
X146327510Y-90012100D01*
X146364350Y-90014999D01*
X146364366Y-90015000D01*
X146767500Y-90015000D01*
X147267500Y-90015000D01*
X147670634Y-90015000D01*
X147670649Y-90014999D01*
X147707489Y-90012100D01*
X147707495Y-90012099D01*
X147865193Y-89966283D01*
X147865196Y-89966282D01*
X148006552Y-89882685D01*
X148006561Y-89882678D01*
X148122678Y-89766561D01*
X148122685Y-89766552D01*
X148206281Y-89625198D01*
X148252100Y-89467486D01*
X148252295Y-89465001D01*
X148252295Y-89465000D01*
X147267500Y-89465000D01*
X147267500Y-90015000D01*
X146767500Y-90015000D01*
X146767500Y-89465000D01*
X145782705Y-89465000D01*
X145782704Y-89465001D01*
X141035500Y-89465001D01*
X141035500Y-89068401D01*
X141055185Y-89001362D01*
X141107989Y-88955607D01*
X141177147Y-88945663D01*
X141198499Y-88950693D01*
X141332203Y-88994999D01*
X141434991Y-89005500D01*
X142160008Y-89005499D01*
X142160016Y-89005498D01*
X142160019Y-89005498D01*
X142220712Y-88999298D01*
X142262797Y-88994999D01*
X142353334Y-88964998D01*
X145782704Y-88964998D01*
X145782705Y-88965000D01*
X146767500Y-88965000D01*
X146767500Y-88415000D01*
X146364350Y-88415000D01*
X146327510Y-88417899D01*
X146327504Y-88417900D01*
X146169806Y-88463716D01*
X146169803Y-88463717D01*
X146028447Y-88547314D01*
X146028438Y-88547321D01*
X145912321Y-88663438D01*
X145912314Y-88663447D01*
X145828718Y-88804801D01*
X145782899Y-88962513D01*
X145782704Y-88964998D01*
X142353334Y-88964998D01*
X142429334Y-88939814D01*
X142578656Y-88847712D01*
X142702712Y-88723656D01*
X142794814Y-88574334D01*
X142847448Y-88415493D01*
X142887219Y-88358051D01*
X142951735Y-88331228D01*
X142965153Y-88330500D01*
X144213996Y-88330500D01*
X144305040Y-88312389D01*
X144349328Y-88303580D01*
X144438792Y-88266523D01*
X144476807Y-88250777D01*
X144476808Y-88250776D01*
X144476811Y-88250775D01*
X144591543Y-88174114D01*
X144713839Y-88051817D01*
X144775160Y-88018334D01*
X144801519Y-88015500D01*
X146049031Y-88015500D01*
X146112151Y-88032767D01*
X146169602Y-88066744D01*
X146169609Y-88066746D01*
X146327426Y-88112597D01*
X146327429Y-88112597D01*
X146327431Y-88112598D01*
X146364306Y-88115500D01*
X147530500Y-88115500D01*
X147539185Y-88118050D01*
X147548147Y-88116762D01*
X147572187Y-88127740D01*
X147597539Y-88135185D01*
X147603466Y-88142025D01*
X147611703Y-88145787D01*
X147625992Y-88168021D01*
X147643294Y-88187989D01*
X147645581Y-88198503D01*
X147649477Y-88204565D01*
X147654500Y-88239500D01*
X147654500Y-88291000D01*
X147634815Y-88358039D01*
X147582011Y-88403794D01*
X147530500Y-88415000D01*
X147267500Y-88415000D01*
X147267500Y-88965000D01*
X147923185Y-88965000D01*
X147986306Y-88982268D01*
X148044602Y-89016744D01*
X148070964Y-89024403D01*
X148202426Y-89062597D01*
X148202429Y-89062597D01*
X148202431Y-89062598D01*
X148239306Y-89065500D01*
X148239314Y-89065500D01*
X149545686Y-89065500D01*
X149545694Y-89065500D01*
X149582569Y-89062598D01*
X149582571Y-89062597D01*
X149582573Y-89062597D01*
X149639176Y-89046152D01*
X149740398Y-89016744D01*
X149881865Y-88933081D01*
X149998081Y-88816865D01*
X150081744Y-88675398D01*
X150127425Y-88518166D01*
X150127597Y-88517573D01*
X150127598Y-88517567D01*
X150129783Y-88489801D01*
X150130500Y-88480694D01*
X150130500Y-88049306D01*
X150127598Y-88012431D01*
X150119071Y-87983082D01*
X150081745Y-87854606D01*
X150081744Y-87854603D01*
X150081744Y-87854602D01*
X149998081Y-87713135D01*
X149998079Y-87713133D01*
X149998076Y-87713129D01*
X149881870Y-87596923D01*
X149881859Y-87596914D01*
X149850978Y-87578652D01*
X149803294Y-87527584D01*
X149790790Y-87458842D01*
X149817435Y-87394252D01*
X149826417Y-87384239D01*
X150057942Y-87152715D01*
X150404114Y-86806543D01*
X150480775Y-86691811D01*
X150483321Y-86685666D01*
X150519951Y-86597232D01*
X150533580Y-86564328D01*
X150542914Y-86517402D01*
X150560500Y-86428996D01*
X150560500Y-86251744D01*
X150580185Y-86184705D01*
X150611615Y-86151426D01*
X150707215Y-86081969D01*
X150707215Y-86081968D01*
X150707219Y-86081966D01*
X150851966Y-85937219D01*
X150851968Y-85937215D01*
X150851971Y-85937213D01*
X150929502Y-85830499D01*
X150972287Y-85771610D01*
X151065220Y-85589219D01*
X151128477Y-85394534D01*
X151160500Y-85192352D01*
X151160500Y-84987648D01*
X151143099Y-84877784D01*
X151128477Y-84785465D01*
X151082619Y-84644331D01*
X151065220Y-84590781D01*
X151065218Y-84590778D01*
X151065218Y-84590776D01*
X151010313Y-84483021D01*
X150972287Y-84408390D01*
X150959086Y-84390220D01*
X150851971Y-84242786D01*
X150707213Y-84098028D01*
X150541613Y-83977715D01*
X150541612Y-83977714D01*
X150541610Y-83977713D01*
X150460953Y-83936616D01*
X150359223Y-83884781D01*
X150164534Y-83821522D01*
X149989995Y-83793878D01*
X149962352Y-83789500D01*
X149757648Y-83789500D01*
X149733329Y-83793351D01*
X149555465Y-83821522D01*
X149360776Y-83884781D01*
X149178386Y-83977715D01*
X149012786Y-84098028D01*
X148868028Y-84242786D01*
X148747715Y-84408386D01*
X148654781Y-84590776D01*
X148591522Y-84785465D01*
X148559500Y-84987648D01*
X148559500Y-85192351D01*
X148591522Y-85394534D01*
X148654781Y-85589223D01*
X148718691Y-85714653D01*
X148744250Y-85764814D01*
X148747715Y-85771613D01*
X148868028Y-85937213D01*
X148992397Y-86061582D01*
X149025882Y-86122905D01*
X149020898Y-86192597D01*
X148992397Y-86236944D01*
X148363631Y-86865710D01*
X148302308Y-86899195D01*
X148232616Y-86894211D01*
X148176683Y-86852339D01*
X148169227Y-86841164D01*
X148123081Y-86763135D01*
X148123078Y-86763132D01*
X148123076Y-86763129D01*
X148006870Y-86646923D01*
X148006862Y-86646917D01*
X147928681Y-86600681D01*
X147865398Y-86563256D01*
X147865397Y-86563255D01*
X147865396Y-86563255D01*
X147865393Y-86563254D01*
X147707573Y-86517402D01*
X147707567Y-86517401D01*
X147670701Y-86514500D01*
X147670694Y-86514500D01*
X146364306Y-86514500D01*
X146364298Y-86514500D01*
X146327432Y-86517401D01*
X146327426Y-86517402D01*
X146169606Y-86563254D01*
X146169603Y-86563255D01*
X146112152Y-86597232D01*
X146049031Y-86614500D01*
X144391003Y-86614500D01*
X144282590Y-86636065D01*
X144282589Y-86636065D01*
X144255671Y-86641420D01*
X144128190Y-86694224D01*
X144013456Y-86770886D01*
X143977800Y-86806543D01*
X143891160Y-86893182D01*
X143829840Y-86926666D01*
X143803481Y-86929500D01*
X142965154Y-86929500D01*
X142898115Y-86909815D01*
X142852360Y-86857011D01*
X142847448Y-86844504D01*
X142823053Y-86770886D01*
X142794814Y-86685666D01*
X142702712Y-86536344D01*
X142578656Y-86412288D01*
X142472166Y-86346605D01*
X142429336Y-86320187D01*
X142429331Y-86320185D01*
X142411656Y-86314328D01*
X142262797Y-86265001D01*
X142262795Y-86265000D01*
X142160010Y-86254500D01*
X141434998Y-86254500D01*
X141434980Y-86254501D01*
X141332203Y-86265000D01*
X141332200Y-86265001D01*
X141198504Y-86309304D01*
X141128675Y-86311706D01*
X141068634Y-86275974D01*
X141037441Y-86213453D01*
X141035500Y-86191598D01*
X141035500Y-86160424D01*
X141008581Y-86025097D01*
X141008580Y-86025096D01*
X141008580Y-86025092D01*
X140972182Y-85937219D01*
X140955777Y-85897613D01*
X140955776Y-85897611D01*
X140955775Y-85897609D01*
X140946758Y-85884114D01*
X140879114Y-85782877D01*
X140879112Y-85782874D01*
X135197125Y-80100887D01*
X135082387Y-80024222D01*
X134954912Y-79971421D01*
X134954902Y-79971418D01*
X134819576Y-79944500D01*
X134819574Y-79944500D01*
X134819573Y-79944500D01*
X132171744Y-79944500D01*
X132104705Y-79924815D01*
X132071425Y-79893384D01*
X132001969Y-79797784D01*
X131857213Y-79653028D01*
X131691613Y-79532715D01*
X131691612Y-79532714D01*
X131691610Y-79532713D01*
X131628389Y-79500500D01*
X131509223Y-79439781D01*
X131314534Y-79376522D01*
X131139995Y-79348878D01*
X131112352Y-79344500D01*
X130507648Y-79344500D01*
X130483329Y-79348351D01*
X130305465Y-79376522D01*
X130110776Y-79439781D01*
X129928386Y-79532715D01*
X129762786Y-79653028D01*
X129618028Y-79797786D01*
X129497715Y-79963386D01*
X129404781Y-80145776D01*
X129341522Y-80340465D01*
X129309500Y-80542648D01*
X129309500Y-80747351D01*
X129341522Y-80949534D01*
X129404781Y-81144223D01*
X129439605Y-81212567D01*
X129493620Y-81318578D01*
X129497715Y-81326613D01*
X129618028Y-81492213D01*
X129762786Y-81636971D01*
X129888893Y-81728591D01*
X129928390Y-81757287D01*
X129998526Y-81793023D01*
X130021080Y-81804515D01*
X130071876Y-81852490D01*
X130088671Y-81920311D01*
X130066134Y-81986446D01*
X130021080Y-82025485D01*
X129928386Y-82072715D01*
X129762786Y-82193028D01*
X129618028Y-82337786D01*
X129497715Y-82503386D01*
X129404781Y-82685776D01*
X129341522Y-82880465D01*
X129309500Y-83082648D01*
X129309500Y-83287351D01*
X129341522Y-83489534D01*
X129404781Y-83684223D01*
X129454096Y-83781007D01*
X129481210Y-83834222D01*
X129497715Y-83866613D01*
X129618028Y-84032213D01*
X129762786Y-84176971D01*
X129917749Y-84289556D01*
X129928390Y-84297287D01*
X130019840Y-84343883D01*
X130021080Y-84344515D01*
X130071876Y-84392490D01*
X130088671Y-84460311D01*
X130066134Y-84526446D01*
X130021080Y-84565485D01*
X129928386Y-84612715D01*
X129762786Y-84733028D01*
X129618028Y-84877786D01*
X129497715Y-85043386D01*
X129404781Y-85225776D01*
X129341522Y-85420465D01*
X129321219Y-85548656D01*
X129309500Y-85622648D01*
X129309500Y-85827352D01*
X129309999Y-85830500D01*
X129341522Y-86029534D01*
X129404781Y-86224223D01*
X129453678Y-86320187D01*
X129480568Y-86372962D01*
X129497715Y-86406613D01*
X129618028Y-86572213D01*
X129762786Y-86716971D01*
X129886074Y-86806543D01*
X129928390Y-86837287D01*
X130014097Y-86880957D01*
X130021080Y-86884515D01*
X130071876Y-86932490D01*
X130088671Y-87000311D01*
X130066134Y-87066446D01*
X130021080Y-87105485D01*
X129928386Y-87152715D01*
X129762786Y-87273028D01*
X129618028Y-87417786D01*
X129497715Y-87583386D01*
X129404781Y-87765776D01*
X129341522Y-87960465D01*
X129309500Y-88162648D01*
X129309500Y-88367351D01*
X129341522Y-88569534D01*
X129404781Y-88764223D01*
X129447322Y-88847712D01*
X129497230Y-88945663D01*
X129497715Y-88946613D01*
X129618028Y-89112213D01*
X129762786Y-89256971D01*
X129908022Y-89362489D01*
X129928390Y-89377287D01*
X130019840Y-89423883D01*
X130021080Y-89424515D01*
X130071876Y-89472490D01*
X130088671Y-89540311D01*
X130066134Y-89606446D01*
X130021080Y-89645485D01*
X129928386Y-89692715D01*
X129762786Y-89813028D01*
X129618028Y-89957786D01*
X129497715Y-90123386D01*
X129404781Y-90305776D01*
X129341522Y-90500465D01*
X129309500Y-90702648D01*
X129309500Y-90907351D01*
X129341522Y-91109534D01*
X129404781Y-91304223D01*
X129439994Y-91373331D01*
X129493768Y-91478868D01*
X129497715Y-91486613D01*
X129618028Y-91652213D01*
X129762786Y-91796971D01*
X129895421Y-91893334D01*
X129928390Y-91917287D01*
X130019840Y-91963883D01*
X130021080Y-91964515D01*
X130071876Y-92012490D01*
X130088671Y-92080311D01*
X130066134Y-92146446D01*
X130021080Y-92185485D01*
X129928386Y-92232715D01*
X129762786Y-92353028D01*
X129618028Y-92497786D01*
X129497715Y-92663386D01*
X129404781Y-92845776D01*
X129341522Y-93040465D01*
X129309500Y-93242648D01*
X129309500Y-93447351D01*
X129341522Y-93649534D01*
X129404781Y-93844223D01*
X129447321Y-93927710D01*
X129494250Y-94019814D01*
X129497715Y-94026613D01*
X129618028Y-94192213D01*
X129762786Y-94336971D01*
X129917749Y-94449556D01*
X129928390Y-94457287D01*
X130019840Y-94503883D01*
X130021080Y-94504515D01*
X130071876Y-94552490D01*
X130088671Y-94620311D01*
X130066134Y-94686446D01*
X130021080Y-94725485D01*
X129928386Y-94772715D01*
X129762786Y-94893028D01*
X129618032Y-95037782D01*
X129618032Y-95037783D01*
X129497715Y-95203386D01*
X129404781Y-95385776D01*
X129341522Y-95580465D01*
X129309500Y-95782648D01*
X129309500Y-95987351D01*
X129341522Y-96189534D01*
X129404781Y-96384223D01*
X129439146Y-96451666D01*
X129494354Y-96560018D01*
X129497715Y-96566613D01*
X129618028Y-96732213D01*
X129762786Y-96876971D01*
X129900090Y-96976726D01*
X129928390Y-96997287D01*
X130019840Y-97043883D01*
X130021080Y-97044515D01*
X130071876Y-97092490D01*
X130088671Y-97160311D01*
X130066134Y-97226446D01*
X130021080Y-97265485D01*
X129928386Y-97312715D01*
X129762786Y-97433028D01*
X129618028Y-97577786D01*
X129497715Y-97743386D01*
X129404781Y-97925776D01*
X129341522Y-98120465D01*
X129309500Y-98322648D01*
X129309500Y-98527351D01*
X129341522Y-98729534D01*
X129404781Y-98924223D01*
X129427655Y-98969114D01*
X129494354Y-99100018D01*
X129497715Y-99106613D01*
X129618028Y-99272213D01*
X129762786Y-99416971D01*
X129902318Y-99518345D01*
X129928390Y-99537287D01*
X130019840Y-99583883D01*
X130021080Y-99584515D01*
X130071876Y-99632490D01*
X130088671Y-99700311D01*
X130066134Y-99766446D01*
X130021080Y-99805485D01*
X129928386Y-99852715D01*
X129762786Y-99973028D01*
X129618030Y-100117784D01*
X129608702Y-100130624D01*
X129553371Y-100173289D01*
X129483758Y-100179267D01*
X129421963Y-100146660D01*
X129397901Y-100114033D01*
X129382286Y-100083388D01*
X129261971Y-99917786D01*
X129117213Y-99773028D01*
X128951613Y-99652715D01*
X128951612Y-99652714D01*
X128951610Y-99652713D01*
X128894384Y-99623555D01*
X128769223Y-99559781D01*
X128574534Y-99496522D01*
X128399995Y-99468878D01*
X128372352Y-99464500D01*
X128167648Y-99464500D01*
X128143329Y-99468351D01*
X127965465Y-99496522D01*
X127770776Y-99559781D01*
X127588386Y-99652715D01*
X127422786Y-99773028D01*
X127278028Y-99917786D01*
X127157715Y-100083386D01*
X127110485Y-100176080D01*
X127062510Y-100226876D01*
X126994689Y-100243671D01*
X126928554Y-100221134D01*
X126889515Y-100176080D01*
X126880855Y-100159084D01*
X126842287Y-100083390D01*
X126834556Y-100072749D01*
X126721971Y-99917786D01*
X126577213Y-99773028D01*
X126411613Y-99652715D01*
X126411612Y-99652714D01*
X126411610Y-99652713D01*
X126354384Y-99623555D01*
X126229223Y-99559781D01*
X126034534Y-99496522D01*
X125859995Y-99468878D01*
X125832352Y-99464500D01*
X125627648Y-99464500D01*
X125603329Y-99468351D01*
X125425465Y-99496522D01*
X125230776Y-99559781D01*
X125048386Y-99652715D01*
X124882786Y-99773028D01*
X124738028Y-99917786D01*
X124617715Y-100083386D01*
X124570485Y-100176080D01*
X124522510Y-100226876D01*
X124454689Y-100243671D01*
X124388554Y-100221134D01*
X124349515Y-100176080D01*
X124340855Y-100159084D01*
X124302287Y-100083390D01*
X124294556Y-100072749D01*
X124181971Y-99917786D01*
X124037213Y-99773028D01*
X123871613Y-99652715D01*
X123871612Y-99652714D01*
X123871610Y-99652713D01*
X123814384Y-99623555D01*
X123689223Y-99559781D01*
X123494534Y-99496522D01*
X123319995Y-99468878D01*
X123292352Y-99464500D01*
X123087648Y-99464500D01*
X123063329Y-99468351D01*
X122885465Y-99496522D01*
X122690776Y-99559781D01*
X122508386Y-99652715D01*
X122342786Y-99773028D01*
X122198028Y-99917786D01*
X122077715Y-100083386D01*
X122030485Y-100176080D01*
X121982510Y-100226876D01*
X121914689Y-100243671D01*
X121848554Y-100221134D01*
X121809515Y-100176080D01*
X121800855Y-100159084D01*
X121762287Y-100083390D01*
X121754556Y-100072749D01*
X121641971Y-99917786D01*
X121497213Y-99773028D01*
X121331613Y-99652715D01*
X121331612Y-99652714D01*
X121331610Y-99652713D01*
X121274384Y-99623555D01*
X121149223Y-99559781D01*
X120954534Y-99496522D01*
X120779995Y-99468878D01*
X120752352Y-99464500D01*
X120547648Y-99464500D01*
X120523329Y-99468351D01*
X120345465Y-99496522D01*
X120150776Y-99559781D01*
X119968386Y-99652715D01*
X119802786Y-99773028D01*
X119658028Y-99917786D01*
X119537715Y-100083386D01*
X119490485Y-100176080D01*
X119442510Y-100226876D01*
X119374689Y-100243671D01*
X119308554Y-100221134D01*
X119269515Y-100176080D01*
X119260855Y-100159084D01*
X119222287Y-100083390D01*
X119214556Y-100072749D01*
X119101971Y-99917786D01*
X118957213Y-99773028D01*
X118791613Y-99652715D01*
X118791612Y-99652714D01*
X118791610Y-99652713D01*
X118734384Y-99623555D01*
X118609223Y-99559781D01*
X118414534Y-99496522D01*
X118239995Y-99468878D01*
X118212352Y-99464500D01*
X118007648Y-99464500D01*
X117983329Y-99468351D01*
X117805465Y-99496522D01*
X117610776Y-99559781D01*
X117428386Y-99652715D01*
X117262786Y-99773028D01*
X117118028Y-99917786D01*
X116997713Y-100083388D01*
X116982097Y-100114035D01*
X116934121Y-100164830D01*
X116866300Y-100181623D01*
X116800166Y-100159084D01*
X116771294Y-100130620D01*
X116761967Y-100117782D01*
X116617213Y-99973028D01*
X116451614Y-99852715D01*
X116445006Y-99849348D01*
X116358917Y-99805483D01*
X116308123Y-99757511D01*
X116291328Y-99689690D01*
X116313865Y-99623555D01*
X116358917Y-99584516D01*
X116451610Y-99537287D01*
X116477682Y-99518345D01*
X116617213Y-99416971D01*
X116617215Y-99416968D01*
X116617219Y-99416966D01*
X116761966Y-99272219D01*
X116761968Y-99272215D01*
X116761971Y-99272213D01*
X116848546Y-99153051D01*
X116882287Y-99106610D01*
X116975220Y-98924219D01*
X117038477Y-98729534D01*
X117070500Y-98527352D01*
X117070500Y-98322648D01*
X117061731Y-98267284D01*
X117038477Y-98120465D01*
X116975218Y-97925776D01*
X116939410Y-97855500D01*
X116882287Y-97743390D01*
X116850119Y-97699114D01*
X116761971Y-97577786D01*
X116617213Y-97433028D01*
X116451614Y-97312715D01*
X116441071Y-97307343D01*
X116358917Y-97265483D01*
X116308123Y-97217511D01*
X116291328Y-97149690D01*
X116313865Y-97083555D01*
X116358917Y-97044516D01*
X116451610Y-96997287D01*
X116479917Y-96976721D01*
X116617213Y-96876971D01*
X116617215Y-96876968D01*
X116617219Y-96876966D01*
X116761966Y-96732219D01*
X116761968Y-96732215D01*
X116761971Y-96732213D01*
X116817505Y-96655776D01*
X116882287Y-96566610D01*
X116975220Y-96384219D01*
X117038477Y-96189534D01*
X117070500Y-95987352D01*
X117070500Y-95782648D01*
X117038477Y-95580465D01*
X116988771Y-95427488D01*
X116975220Y-95385781D01*
X116975218Y-95385778D01*
X116975218Y-95385776D01*
X116926321Y-95289812D01*
X116882287Y-95203390D01*
X116812476Y-95107302D01*
X116761968Y-95037783D01*
X116617213Y-94893028D01*
X116451614Y-94772715D01*
X116445006Y-94769348D01*
X116358917Y-94725483D01*
X116308123Y-94677511D01*
X116291328Y-94609690D01*
X116313865Y-94543555D01*
X116358917Y-94504516D01*
X116451610Y-94457287D01*
X116515771Y-94410672D01*
X116617213Y-94336971D01*
X116617215Y-94336968D01*
X116617219Y-94336966D01*
X116761966Y-94192219D01*
X116761968Y-94192215D01*
X116761971Y-94192213D01*
X116839502Y-94085499D01*
X116882287Y-94026610D01*
X116975220Y-93844219D01*
X117038477Y-93649534D01*
X117070500Y-93447352D01*
X117070500Y-93242648D01*
X117053099Y-93132786D01*
X117038477Y-93040465D01*
X117001132Y-92925529D01*
X116975220Y-92845781D01*
X116975218Y-92845778D01*
X116975218Y-92845776D01*
X116939043Y-92774780D01*
X116882287Y-92663390D01*
X116854261Y-92624815D01*
X116761971Y-92497786D01*
X116617213Y-92353028D01*
X116451614Y-92232715D01*
X116445006Y-92229348D01*
X116358917Y-92185483D01*
X116308123Y-92137511D01*
X116291328Y-92069690D01*
X116313865Y-92003555D01*
X116358917Y-91964516D01*
X116451610Y-91917287D01*
X116484579Y-91893334D01*
X116617213Y-91796971D01*
X116617215Y-91796968D01*
X116617219Y-91796966D01*
X116761966Y-91652219D01*
X116761968Y-91652215D01*
X116761971Y-91652213D01*
X116834409Y-91552509D01*
X116882287Y-91486610D01*
X116975220Y-91304219D01*
X117038477Y-91109534D01*
X117070500Y-90907352D01*
X117070500Y-90702648D01*
X117047616Y-90558166D01*
X117038477Y-90500465D01*
X116975218Y-90305776D01*
X116941503Y-90239607D01*
X116882287Y-90123390D01*
X116866024Y-90101006D01*
X116761971Y-89957786D01*
X116617213Y-89813028D01*
X116451614Y-89692715D01*
X116404268Y-89668591D01*
X116358917Y-89645483D01*
X116308123Y-89597511D01*
X116291328Y-89529690D01*
X116313865Y-89463555D01*
X116358917Y-89424516D01*
X116451610Y-89377287D01*
X116472770Y-89361913D01*
X116617213Y-89256971D01*
X116617215Y-89256968D01*
X116617219Y-89256966D01*
X116761966Y-89112219D01*
X116761968Y-89112215D01*
X116761971Y-89112213D01*
X116817505Y-89035776D01*
X116882287Y-88946610D01*
X116975220Y-88764219D01*
X117038477Y-88569534D01*
X117070500Y-88367352D01*
X117070500Y-88162648D01*
X117068293Y-88148716D01*
X117038477Y-87960465D01*
X116986501Y-87800500D01*
X116975220Y-87765781D01*
X116975218Y-87765778D01*
X116975218Y-87765776D01*
X116925439Y-87668081D01*
X116882287Y-87583390D01*
X116870795Y-87567573D01*
X116761971Y-87417786D01*
X116617213Y-87273028D01*
X116451614Y-87152715D01*
X116406670Y-87129815D01*
X116358917Y-87105483D01*
X116308123Y-87057511D01*
X116291328Y-86989690D01*
X116313865Y-86923555D01*
X116358917Y-86884516D01*
X116451610Y-86837287D01*
X116543004Y-86770886D01*
X116617213Y-86716971D01*
X116617215Y-86716968D01*
X116617219Y-86716966D01*
X116761966Y-86572219D01*
X116761968Y-86572215D01*
X116761971Y-86572213D01*
X116831425Y-86476616D01*
X116882287Y-86406610D01*
X116975220Y-86224219D01*
X117038477Y-86029534D01*
X117070500Y-85827352D01*
X117070500Y-85622648D01*
X117038477Y-85420466D01*
X117031611Y-85399336D01*
X117000056Y-85302219D01*
X116975220Y-85225781D01*
X116975218Y-85225778D01*
X116975218Y-85225776D01*
X116935666Y-85148153D01*
X116882287Y-85043390D01*
X116857893Y-85009814D01*
X116761971Y-84877786D01*
X116617213Y-84733028D01*
X116451611Y-84612713D01*
X116358369Y-84565203D01*
X116307574Y-84517229D01*
X116290779Y-84449407D01*
X116313317Y-84383273D01*
X116358371Y-84344234D01*
X116451347Y-84296861D01*
X116616894Y-84176582D01*
X116616895Y-84176582D01*
X116761582Y-84031895D01*
X116761582Y-84031894D01*
X116881859Y-83866349D01*
X116974755Y-83684029D01*
X117037990Y-83489413D01*
X117046609Y-83435000D01*
X116003012Y-83435000D01*
X116035925Y-83377993D01*
X116070000Y-83250826D01*
X116070000Y-83119174D01*
X116035925Y-82992007D01*
X116003012Y-82935000D01*
X117046609Y-82935000D01*
X117037990Y-82880586D01*
X116974755Y-82685970D01*
X116881859Y-82503650D01*
X116761582Y-82338105D01*
X116761582Y-82338104D01*
X116616895Y-82193417D01*
X116451349Y-82073140D01*
X116358370Y-82025765D01*
X116307574Y-81977790D01*
X116290779Y-81909969D01*
X116313316Y-81843835D01*
X116358370Y-81804795D01*
X116358920Y-81804515D01*
X116451610Y-81757287D01*
X116491107Y-81728591D01*
X116617213Y-81636971D01*
X116617215Y-81636968D01*
X116617219Y-81636966D01*
X116761966Y-81492219D01*
X116831425Y-81396615D01*
X116886755Y-81353949D01*
X116931744Y-81345500D01*
X118178996Y-81345500D01*
X118273959Y-81326610D01*
X118314328Y-81318580D01*
X118378069Y-81292177D01*
X118441807Y-81265777D01*
X118441808Y-81265776D01*
X118441811Y-81265775D01*
X118556543Y-81189114D01*
X121538838Y-78206819D01*
X121600161Y-78173334D01*
X121626519Y-78170500D01*
X147130500Y-78170500D01*
X147197539Y-78190185D01*
G37*
%TD.AperFunction*%
%TD*%
M02*
